<?xml version="1.0" encoding="utf-8"?>
<!-- Generator: Adobe Illustrator 15.0.0, SVG Export Plug-In . SVG Version: 6.00 Build 0)  -->
<!DOCTYPE svg PUBLIC "-//W3C//DTD SVG 1.1//EN" "http://www.w3.org/Graphics/SVG/1.1/DTD/svg11.dtd">
<svg version="1.1"
	 id="svg6044" xmlns:dc="http://purl.org/dc/elements/1.1/" xmlns:cc="http://creativecommons.org/ns#" xmlns:rdf="http://www.w3.org/1999/02/22-rdf-syntax-ns#" xmlns:svg="http://www.w3.org/2000/svg" xmlns:sodipodi="http://sodipodi.sourceforge.net/DTD/sodipodi-0.dtd" xmlns:inkscape="http://www.inkscape.org/namespaces/inkscape" sodipodi:docname="hr.svg" inkscape:version="0.91 r13725"
	 xmlns="http://www.w3.org/2000/svg" xmlns:xlink="http://www.w3.org/1999/xlink" x="0px" y="0px" width="642.051px"
	 height="5.406px" viewBox="0 0 642.051 5.406" enable-background="new 0 0 642.051 5.406" xml:space="preserve">
<sodipodi:namedview  id="base" units="px" fit-margin-left="0" fit-margin-top="0" showgrid="false" inkscape:cy="-25.43287" inkscape:cx="327.60837" inkscape:zoom="1.4" borderopacity="1.0" bordercolor="#666666" pagecolor="#ffffff" inkscape:window-maximized="1" inkscape:window-y="0" inkscape:window-x="0" inkscape:window-height="1080" inkscape:window-width="1920" fit-margin-bottom="0" fit-margin-right="0" inkscape:current-layer="layer1" inkscape:document-units="px" inkscape:pageshadow="2" inkscape:pageopacity="0.0">
	</sodipodi:namedview>
<g id="layer1" transform="translate(-3.4534391e-8,-1046.9554)" inkscape:label="Layer 1" inkscape:groupmode="layer">
	
		<path id="path6033" inkscape:connector-curvature="0" sodipodi:nodetypes="cccssscsccscsscsscccccc" stroke="#000000" stroke-width="3" stroke-linecap="round" stroke-linejoin="round" stroke-miterlimit="10" d="
		M1.667,1049.733c5.105-0.23,16.431-0.108,33.977,0.364c17.546,0.474,31.346,0.661,41.4,0.563
		c10.054-0.097,15.896-0.106,17.525-0.027s9.716,0.101,24.257,0.067c14.542-0.034,24.659-0.144,30.352-0.332
		c5.693-0.188,10.542-0.285,14.545-0.295s9.81-0.185,17.42-0.527s12.923-0.485,15.941-0.43c3.018,0.057,7.351,0.282,12.999,0.678
		c5.648,0.396,15.355,0.464,29.123,0.202c13.767-0.262,23.864-0.296,30.292-0.104c6.428,0.192,17.022,0.309,31.782,0.347
		c14.761,0.039,28.37,0,40.829-0.117c12.46-0.117,22.049-0.314,28.768-0.593c6.72-0.277,14.79-0.33,24.211-0.155
		c9.422,0.174,26.803,0.193,52.143,0.059s43.501-0.174,54.483-0.118s23.804-0.053,38.464-0.324
		c14.659-0.271,25.891-0.401,33.694-0.391c7.804,0.012,17.779,0.239,29.927,0.684c12.148,0.445,19.345,0.611,21.589,0.498
		c2.245-0.113,7.243-0.204,14.995-0.272"/>
</g>
</svg>
