<?xml version="1.0" encoding="utf-8"?>
<!-- Generator: Adobe Illustrator 15.0.0, SVG Export Plug-In . SVG Version: 6.00 Build 0)  -->
<!DOCTYPE svg PUBLIC "-//W3C//DTD SVG 1.1//EN" "http://www.w3.org/Graphics/SVG/1.1/DTD/svg11.dtd">
<svg version="1.1" id="Calque_1" xmlns="http://www.w3.org/2000/svg" xmlns:xlink="http://www.w3.org/1999/xlink" x="0px" y="0px"
	 width="48px" height="48px" viewBox="0 0 48 48" enable-background="new 0 0 48 48" xml:space="preserve">
<path fill="#4D96FF" d="M11.962,41.917c0.332,0.247,0.678,0.474,1.043,0.672c0.978,0.529,2.062,0.828,3.146,1.074
	c6.892,1.565,15.056,1.603,20.669-3.31c6.252-5.47,9.646-15.092,7.293-23.173c-0.25-0.863-0.562-1.708-0.891-2.545
	c-0.461-1.174-0.959-2.338-1.586-3.433c-4.74-8.275-16.908-10.98-25.055-6.932C15.54,4.788,14.544,5.394,13.551,6
	c-2.258,1.376-4.204,3.169-5.977,5.131C2.555,16.685,1.086,24.689,3.37,31.502c1.216,3.628,4.163,6.409,6.962,9.018
	C10.856,41.008,11.389,41.491,11.962,41.917z"/>
<path fill="#010101" d="M24.051,45.113c-2.847,0-5.613-0.418-8.01-0.963c-1.078-0.245-2.221-0.553-3.274-1.123
	c-0.37-0.2-0.73-0.434-1.103-0.709c-0.559-0.416-1.072-0.873-1.672-1.434c-2.729-2.541-5.82-5.422-7.096-9.225
	c-2.393-7.135-0.702-15.324,4.306-20.865c2.05-2.269,4.041-3.977,6.088-5.224c0.993-0.605,2.011-1.225,3.068-1.751
	c7.948-3.948,20.63-1.736,25.712,7.132c0.681,1.188,1.199,2.436,1.617,3.499c0.275,0.702,0.627,1.632,0.905,2.588
	c2.31,7.934-0.821,17.896-7.442,23.689C33.359,44.047,28.602,45.113,24.051,45.113z M24.971,2.925c-2.926,0-5.771,0.603-8.167,1.793
	c-1.02,0.506-2.019,1.114-2.984,1.702c-1.972,1.202-3.891,2.851-5.875,5.046c-4.77,5.278-6.379,13.08-4.101,19.877
	c1.195,3.563,4.188,6.353,6.83,8.813c0.575,0.536,1.065,0.974,1.587,1.36h0.001c0.333,0.248,0.654,0.457,0.982,0.635
	c0.946,0.513,2.011,0.797,3.019,1.025c6.003,1.364,14.383,1.915,20.229-3.197c6.344-5.552,9.347-15.08,7.141-22.659
	c-0.267-0.918-0.607-1.819-0.876-2.502c-0.403-1.029-0.905-2.234-1.554-3.367C37.917,5.716,31.264,2.925,24.971,2.925z"/>
<path fill="#B5DEFF" d="M33.955,16.751c-0.037-0.031-0.07-0.07-0.1-0.118c-0.112-0.183-0.138-0.404-0.203-0.608
	c-0.215-0.682-0.879-1.146-1.573-1.321c-0.694-0.175-1.423-0.111-2.136-0.045c-0.568,0.052-1.145,0.106-1.674,0.319
	c-0.558,0.224-1.033,0.612-1.457,1.039c-1.098,1.109-1.897,2.549-2.084,4.099c-0.025,0.219-0.068,0.481-0.271,0.57
	c-0.088,0.039-0.188,0.034-0.283,0.026c-2.509-0.186-4.844-1.295-7.112-2.386c-0.703-0.338-1.415-0.683-2.046-1.148
	c-0.285-0.211-1.328-1.579-1.484-0.944c-0.436,1.777-0.172,3.715,0.723,5.311c0.213,0.38,0.477,0.757,0.865,0.955
	c-0.653-0.104-1.307-0.208-1.96-0.312c-0.062,0.406-0.123,0.832,0.014,1.219c0.086,0.241,0.242,0.45,0.397,0.654
	c0.445,0.587,0.889,1.175,1.334,1.763c0.314,0.415,0.633,0.835,1.052,1.144c0.418,0.31,0.957,0.495,1.464,0.377
	c-0.652,0.189-1.344,0.24-2.017,0.15c0.189,0.999,0.789,1.913,1.63,2.483c0.841,0.571,1.912,0.793,2.91,0.603
	c-0.385,0.587-1.036,0.938-1.674,1.231c-0.946,0.435-1.925,0.797-2.925,1.084c-0.518,0.147-1.041,0.275-1.569,0.383
	c-0.152,0.031-0.751,0.046-0.843,0.152c-0.092,0.106-0.141,0.366,0.1,0.439c0.077,0.023,0.154,0.057,0.231,0.082
	c3.104,1.015,6.64,1.992,9.913,1.305c1.786-0.375,3.427-1.244,4.982-2.199c0.777-0.479,1.546-0.986,2.197-1.625
	c0.988-0.97,1.67-2.201,2.293-3.437c0.668-1.325,1.289-2.683,1.74-4.1c0.233-0.737,0.422-1.49,0.541-2.254
	c0.049-0.307-0.011-0.712,0.043-0.984c0.088-0.441,0.574-0.396,0.877-0.723c0.664-0.717,1.207-1.544,1.604-2.438
	c-0.785,0.247-1.426,0.9-2.242,0.994c0.661-0.757,1.125-1.685,1.335-2.669c-0.099,0.465-1.233,0.848-1.618,0.931
	C34.623,16.821,34.211,16.971,33.955,16.751z"/>
<path fill="#010101" d="M20.873,35.986c-2.569,0-5.225-0.729-7.764-1.557l-0.221-0.08c-0.248-0.074-0.431-0.255-0.5-0.492
	c-0.074-0.252-0.009-0.547,0.165-0.752c0.188-0.219,0.486-0.256,0.956-0.299c0.072-0.008,0.135-0.013,0.172-0.019
	c0.511-0.104,1.021-0.229,1.526-0.373c0.976-0.279,1.936-0.635,2.854-1.058c0.175-0.08,0.35-0.166,0.517-0.258
	c-0.649-0.096-1.277-0.336-1.825-0.709c-0.954-0.647-1.625-1.67-1.84-2.805c-0.03-0.156,0.018-0.32,0.128-0.438
	c0.06-0.063,0.133-0.106,0.212-0.133c-0.288-0.285-0.527-0.604-0.747-0.894l-1.332-1.763c-0.158-0.208-0.355-0.467-0.47-0.788
	c-0.183-0.517-0.102-1.041-0.037-1.463c0.021-0.131,0.092-0.249,0.199-0.328c0.107-0.078,0.241-0.11,0.373-0.09l0.579,0.093
	c-0.955-1.706-1.236-3.773-0.771-5.673c0.094-0.384,0.368-0.495,0.482-0.525c0.522-0.14,1.004,0.376,1.517,0.917
	c0.113,0.119,0.208,0.224,0.269,0.271c0.604,0.446,1.326,0.792,1.964,1.098c2.203,1.061,4.482,2.157,6.93,2.338
	c0.004-0.023,0.013-0.082,0.022-0.156c0.188-1.572,0.979-3.132,2.225-4.391c0.562-0.565,1.077-0.932,1.626-1.151
	c0.604-0.242,1.247-0.301,1.814-0.353c0.711-0.064,1.517-0.141,2.304,0.058c0.94,0.239,1.681,0.873,1.929,1.655
	c0.023,0.074,0.042,0.149,0.063,0.225c0.025,0.107,0.052,0.209,0.086,0.269c0.078,0.007,0.279-0.036,0.391-0.063l0.154-0.036
	c0.486-0.105,1.15-0.412,1.246-0.577c0.06-0.271,0.326-0.431,0.589-0.369c0.271,0.058,0.438,0.338,0.38,0.608
	c-0.105,0.495-0.271,0.978-0.487,1.432c0.236-0.131,0.483-0.253,0.757-0.339c0.186-0.058,0.392-0.003,0.521,0.145
	c0.131,0.146,0.164,0.355,0.084,0.535c-0.42,0.948-0.989,1.815-1.693,2.575c-0.189,0.204-0.412,0.309-0.574,0.385
	c-0.063,0.029-0.16,0.075-0.184,0.099c-0.013,0.084-0.011,0.236-0.009,0.384c0.002,0.199,0.001,0.402-0.026,0.578
	c-0.117,0.746-0.306,1.529-0.56,2.326c-0.503,1.589-1.21,3.065-1.771,4.175c-0.594,1.174-1.316,2.516-2.389,3.566
	c-0.688,0.677-1.506,1.214-2.286,1.693c-1.442,0.89-3.183,1.854-5.142,2.266C22.491,35.914,21.687,35.986,20.873,35.986z
	 M14.151,33.712c2.861,0.904,5.996,1.672,8.924,1.058c1.809-0.381,3.452-1.293,4.823-2.138c0.844-0.521,1.524-0.981,2.107-1.556
	c0.965-0.946,1.641-2.202,2.197-3.305c0.542-1.076,1.227-2.506,1.709-4.026c0.238-0.749,0.415-1.482,0.523-2.18
	c0.021-0.125,0.017-0.271,0.016-0.411c-0.002-0.198-0.006-0.403,0.033-0.592c0.102-0.511,0.498-0.696,0.733-0.808
	c0.112-0.052,0.209-0.097,0.265-0.158c0.266-0.285,0.509-0.587,0.729-0.904c-0.288,0.143-0.596,0.257-0.942,0.298
	c-0.217,0.02-0.403-0.082-0.5-0.265s-0.069-0.405,0.065-0.562c0.287-0.328,0.533-0.69,0.731-1.077
	c-0.299,0.105-0.527,0.155-0.533,0.157l-0.129,0.03c-0.344,0.083-0.862,0.213-1.277-0.145c0,0-0.001,0-0.001-0.001
	c-0.076-0.065-0.144-0.145-0.198-0.235c-0.117-0.189-0.168-0.393-0.207-0.555c-0.015-0.056-0.027-0.11-0.045-0.164
	c-0.173-0.543-0.744-0.866-1.221-0.987c-0.617-0.156-1.305-0.094-1.967-0.031c-0.524,0.048-1.065,0.097-1.534,0.284
	c-0.418,0.168-0.827,0.463-1.287,0.927c-1.09,1.102-1.78,2.454-1.942,3.807c-0.027,0.228-0.092,0.759-0.565,0.968
	c-0.209,0.092-0.414,0.078-0.525,0.066c-2.633-0.194-5.105-1.384-7.287-2.434c-0.676-0.324-1.443-0.692-2.126-1.195
	c-0.086-0.063-0.23-0.21-0.398-0.387c-0.09-0.095-0.247-0.261-0.395-0.4c-0.267,1.531,0.005,3.151,0.766,4.508
	c0.153,0.273,0.366,0.605,0.656,0.754c0.219,0.111,0.324,0.366,0.248,0.6c-0.076,0.234-0.305,0.374-0.554,0.34l-1.447-0.23
	c-0.009,0.171,0.001,0.336,0.051,0.477c0.062,0.174,0.195,0.35,0.323,0.519l1.334,1.765c0.288,0.381,0.585,0.773,0.95,1.043
	c0.347,0.254,0.736,0.363,1.055,0.293c0.26-0.062,0.528,0.1,0.597,0.36c0.067,0.263-0.085,0.531-0.346,0.606
	c-0.477,0.138-0.978,0.209-1.477,0.212c0.25,0.614,0.68,1.153,1.232,1.528c0.736,0.5,1.659,0.691,2.534,0.523
	c0.198-0.035,0.397,0.046,0.509,0.213c0.112,0.167,0.113,0.385,0.003,0.553c-0.449,0.688-1.17,1.084-1.882,1.412
	c-0.965,0.443-1.974,0.817-2.997,1.109C15.043,33.503,14.599,33.614,14.151,33.712z M34.279,16.371l-0.325,0.38L34.279,16.371
	L34.279,16.371z"/>
</svg>
