<?xml version="1.0" encoding="utf-8"?>
<!-- Generator: Adobe Illustrator 15.0.0, SVG Export Plug-In . SVG Version: 6.00 Build 0)  -->
<!DOCTYPE svg PUBLIC "-//W3C//DTD SVG 1.1//EN" "http://www.w3.org/Graphics/SVG/1.1/DTD/svg11.dtd">
<svg version="1.1" id="Calque_1" xmlns="http://www.w3.org/2000/svg" xmlns:xlink="http://www.w3.org/1999/xlink" x="0px" y="0px"
	 width="48px" height="48px" viewBox="0 0 48 48" enable-background="new 0 0 48 48" xml:space="preserve">
<path fill="#B5DEFF" d="M15.572,7.031c-0.394-0.009-0.778-0.019-1.172,0c0.066,2.728,0.506,5.56-0.188,8.231
	c0.178,0.028,0.347,0.065,0.516,0.122c0.188,0.056,0.337,0.131,0.469,0.225c0.16-0.45,0.169-0.984,0.178-1.435
	c0.019-0.675,0-1.359,0.019-2.034c0.028-0.881,0.197-1.744,0.207-2.625C15.609,8.681,15.581,7.856,15.572,7.031z"/>
<path fill="#CAB8FF" d="M29.297,16.612c-2.166-1.453-4.978-1.922-7.472-1.106c-2.344,0.759-4.416,2.475-4.547,5.081
	c-0.01,0.197-0.104,0.328-0.234,0.394c-0.3,2.925,0.469,6.337,3.131,7.969c3.019,1.847,7.003,2.053,10.172,0.44
	C35.597,26.709,33.31,19.303,29.297,16.612z M29.653,27.271c-1.444,1.153-3.375,1.613-5.203,1.557
	c-1.753-0.057-3.844-0.609-4.979-2.053c-1.49-1.895-1.115-4.341-0.656-6.544c0-0.066,0.01-0.131,0.047-0.207
	c0-0.019,0.01-0.038,0.01-0.056c0.028-0.141,0.094-0.244,0.188-0.31c2.953-5.043,11.091-2.615,12.234,2.738
	C31.678,24.244,31.135,26.091,29.653,27.271z"/>
<path fill="#283D5B" d="M28.688,19.875c-2.466-2.344-7.041-2.944-8.831,0.516c-0.45,2.138-0.966,4.903,1.106,6.338
	c1.528,1.059,3.61,1.256,5.391,0.891c1.612-0.338,3.337-1.238,3.853-2.926C30.731,22.997,29.925,21.047,28.688,19.875z
	 M27.469,23.935c0,0.159-0.057,0.337-0.206,0.422c-1.304,0.731-3.141,1.321-4.528,0.459c-0.44-0.271-0.685-0.722-0.759-1.228
	c-0.047-0.309,0.028-0.844-0.197-1.097c-0.281-0.31-0.066-0.741,0.225-0.834c0.563-1.209,2.325-1.659,3.534-1.416
	c0.741,0.15,1.444,0.553,1.763,1.266C27.628,22.294,27.479,23.128,27.469,23.935z M38.146,9.487c-0.769-0.3-1.631-0.253-2.438-0.234
	c-0.524,0.01-1.584-0.197-1.987,0.263c-0.337,0.394-0.243,1.106-0.225,1.584c0.009,0.413,0.037,0.834,0,1.247
	c-0.038,0.375-0.188,0.863,0.037,1.2c0.047,0.009,0.094,0.019,0.141,0.038c0.581,0.244,1.172,0.356,1.81,0.3
	c0.506-0.047,0.956-0.065,1.463-0.009c0.722,0.075,1.771,0.31,2.118-0.516C39.544,12.216,39.487,10.013,38.146,9.487z"/>
<path fill="#283D5B" d="M26.494,22.06c-0.197-0.553-0.685-0.834-1.247-0.91c-0.854-0.112-2.128,0.15-2.466,1.06
	c-0.019,0.047-0.038,0.084-0.056,0.112c0.065,0.169,0.103,0.356,0.122,0.553c0.028,0.328-0.009,0.741,0.216,1.013
	c0.366,0.44,1.228,0.45,1.734,0.384c0.619-0.084,1.2-0.3,1.753-0.582C26.588,23.147,26.672,22.556,26.494,22.06z"/>
<path fill="#4D96FF" d="M41.822,11.044c-0.9-1.856-2.653-3.122-4.604-3.703C34.932,6.656,32.644,6.834,30.3,7.05
	c-2.935,0.272-5.887,0.619-8.84,0.479c-1.097-0.047-2.185-0.178-3.281-0.3c0,1.772-0.056,3.544-0.141,5.306
	c-0.047,0.984-0.084,1.969-0.197,2.944c-0.028,0.234-0.047,0.572-0.131,0.844h0.253c0.075,0,0.141,0.019,0.197,0.038
	c1.979-1.837,5.1-2.644,7.706-2.212c1.726,0.281,3.319,1.031,4.65,2.09c0.065-0.037,0.141-0.056,0.234-0.056
	c2.315,0,4.641,0.047,6.956,0.056c1.163,0.01,2.315,0.01,3.479-0.019c0.31-0.009,0.618-0.009,0.919-0.019
	c0.206-0.01,0.449-0.038,0.675-0.038C42.797,14.409,42.591,12.619,41.822,11.044z M39.563,14.306
	c-0.722,0.741-1.856,0.563-2.794,0.469c-0.6-0.056-1.181,0.056-1.781,0.038c-0.6-0.019-1.162-0.178-1.725-0.413
	c-0.085-0.038-0.141-0.075-0.179-0.131c-0.103-0.019-0.196-0.075-0.281-0.168c-0.571-0.675-0.206-1.725-0.225-2.513
	c-0.019-0.731-0.131-1.584,0.169-2.278c0.3-0.694,1.021-0.975,1.734-1.003c0.928-0.047,1.903-0.065,2.831,0.028
	c0.862,0.084,1.791,0.366,2.307,1.125c0.469,0.684,0.637,1.584,0.628,2.409C40.237,12.675,40.153,13.697,39.563,14.306z"/>
<path fill="#C1FFD7" d="M16.509,7.078c0.019,0.909,0.047,1.81,0.009,2.719c-0.037,0.834-0.197,1.65-0.206,2.484
	c-0.009,0.769,0.009,1.538-0.038,2.306c-0.038,0.572-0.075,1.219-0.384,1.725c-0.009,0.009-0.009,0.019-0.019,0.028h0.844
	c0.009-0.084,0.047-0.169,0.094-0.244c0-0.009,0-0.019,0.009-0.028c0.028-0.113,0.047-0.225,0.065-0.347
	c0.047-0.328,0.075-0.646,0.103-0.975c0.075-0.938,0.122-1.885,0.16-2.822c0.056-1.547,0.103-3.094,0.112-4.641
	c0-0.047,0.009-0.094,0.019-0.131C17.016,7.116,16.763,7.097,16.509,7.078z"/>
<path fill="#4D96FF" d="M8.897,12.553c-0.094-1.191-0.291-2.391-0.347-3.582c-0.525,0.394-1.012,0.825-1.472,1.285
	c0,0.019,0,0.028,0,0.047c0,2.156,0.094,4.303,0.178,6.459c0.009,0,0.009,0,0.019,0h1.406c0.019,0,0.047,0,0.066,0.009
	c-0.122-0.225-0.066-0.535,0.178-0.656c0-0.009,0-0.028,0.01-0.047c0.009-0.047,0.019-0.094,0.028-0.141
	c0.047-0.291,0.056-0.582,0.056-0.872C9.019,14.212,8.962,13.378,8.897,12.553z"/>
<path fill="#B5DEFF" d="M14.822,16.622c-0.122-0.319-0.413-0.385-0.722-0.432c-0.675-0.103-1.35-0.047-2.025-0.047
	c-0.544,0-1.256,0.084-1.716,0.394c-0.384,0.253-0.544,0.628-0.591,1.059c0.084,0.01,0.169,0.047,0.244,0.122
	c0.609,0.563,1.8,0.403,2.541,0.3c0.788-0.103,1.584-0.271,2.325-0.553C14.906,17.175,14.925,16.866,14.822,16.622z"/>
<path fill="#CAB8FF" d="M42.412,26.803c-0.253-2.587,0-5.118,0.216-7.696c0.057-0.628,0.104-1.266,0.132-1.922
	c-0.01-0.01-0.028-0.019-0.038-0.028c0,0,0,0-0.009-0.009c-0.038,0.009-0.085,0.009-0.16-0.009l-0.188,0.009
	c-0.121,0-0.243,0.009-0.365,0.009c-0.244,0.009-0.487,0.009-0.74,0.019c-0.488,0.01-0.976,0.019-1.463,0.019
	c-0.975,0.009-1.95,0-2.916-0.009c-1.79-0.019-3.59-0.047-5.391-0.047c1.679,1.725,2.785,4.021,2.963,6.487s-0.74,4.875-2.869,6.263
	c-2.269,1.481-5.25,1.969-7.912,1.481c-2.438-0.45-4.987-1.594-6.319-3.778c-1.256-2.054-1.622-4.5-1.35-6.863
	c0.019-0.178,0.113-0.3,0.225-0.375c0.075-1.181,0.497-2.212,1.134-3.084h-1.443c-0.047,0-0.094-0.009-0.131-0.019
	c0,0.169,0,0.328,0,0.497c0,0.225-0.103,0.384-0.31,0.478c-0.994,0.431-2.137,0.675-3.215,0.759
	c-0.938,0.075-2.138,0.112-2.878-0.572c-0.019-0.019-0.038-0.038-0.047-0.056c-0.253,0.056-0.534-0.075-0.534-0.403
	c0-0.094,0.009-0.188,0.009-0.281c-0.019,0-0.047,0.009-0.075,0.009H7.331c-0.019,0-0.037,0-0.056,0
	c0.038,0.994,0.066,1.988,0.084,2.991c0.019,1.435,0.038,2.878-0.075,4.313c-0.103,1.35-0.291,2.7-0.45,4.05
	c-0.31,2.606-0.666,5.569,0.337,8.081c1.584,3.984,6.516,4.21,10.163,3.938c2.972-0.215,5.944-0.646,8.934-0.665
	c2.447-0.019,4.866,0.412,7.313,0.44c2.109,0.028,4.397-0.188,6.206-1.388c1.95-1.294,2.851-3.394,3.038-5.672
	C43.031,31.443,42.638,29.119,42.412,26.803z"/>
<path fill="#FF6B6B" d="M10.172,7.959C9.938,8.081,9.703,8.203,9.478,8.344c0.019,1.575,0.3,3.159,0.403,4.725
	c0.056,0.872,0.112,1.762,0.047,2.634c0.347-0.197,0.741-0.328,1.144-0.403V7.584C10.763,7.697,10.462,7.819,10.172,7.959z"/>
<path fill="#FEBF10" d="M13.462,7.087C12.975,7.134,12.478,7.209,12,7.322v7.894l0,0c0.384-0.01,0.788-0.028,1.181-0.028
	c0.019-0.103,0.066-0.178,0.131-0.244C13.95,12.394,13.528,9.694,13.462,7.087z"/>
<path d="M31.284,22.406c-1.144-5.353-9.281-7.781-12.234-2.737c-0.094,0.075-0.159,0.178-0.188,0.309
	c0,0.019-0.009,0.038-0.009,0.056c-0.028,0.075-0.047,0.141-0.047,0.207c-0.459,2.203-0.834,4.64,0.656,6.543
	c1.134,1.444,3.234,1.997,4.978,2.054c1.828,0.056,3.76-0.403,5.203-1.557C31.135,26.091,31.678,24.244,31.284,22.406z
	 M30.216,24.693c-0.516,1.679-2.241,2.588-3.854,2.926c-1.79,0.365-3.862,0.168-5.391-0.891c-2.063-1.435-1.556-4.21-1.106-6.338
	c1.791-3.459,6.366-2.859,8.832-0.516C29.925,21.047,30.731,22.997,30.216,24.693z M39.609,9.469
	c-0.506-0.75-1.443-1.031-2.307-1.125C36.385,8.25,35.4,8.269,34.472,8.315c-0.712,0.028-1.435,0.31-1.734,1.003
	s-0.188,1.538-0.169,2.278c0.02,0.797-0.347,1.847,0.226,2.513c0.084,0.094,0.178,0.15,0.281,0.169
	c0.047,0.056,0.103,0.094,0.178,0.131c0.554,0.225,1.116,0.394,1.726,0.413c0.6,0.019,1.181-0.094,1.781-0.038
	c0.938,0.094,2.063,0.272,2.793-0.469c0.591-0.609,0.685-1.631,0.685-2.428C40.247,11.063,40.078,10.163,39.609,9.469z
	 M39.065,13.341c-0.347,0.825-1.396,0.59-2.118,0.516c-0.507-0.047-0.957-0.028-1.463,0.009c-0.628,0.056-1.219-0.066-1.81-0.3
	c-0.047-0.019-0.094-0.028-0.141-0.037c-0.225-0.338-0.075-0.825-0.037-1.2c0.037-0.413,0.009-0.834,0-1.247
	c-0.01-0.478-0.112-1.19,0.225-1.584c0.403-0.459,1.453-0.253,1.987-0.263c0.807-0.019,1.679-0.065,2.438,0.234
	C39.487,10.013,39.544,12.216,39.065,13.341z"/>
<path d="M43.781,31.041c-0.141-2.307-0.581-4.594-0.572-6.91c0.01-2.785,0.535-5.541,0.497-8.334
	c-0.028-2.409-0.516-4.95-2.146-6.806c-1.351-1.538-3.263-2.419-5.241-2.832c-2.418-0.497-4.902-0.15-7.331,0.084
	c-2.972,0.281-5.943,0.544-8.925,0.263c-1.2-0.113-2.409-0.263-3.609-0.347c-0.141-0.271-0.553-0.271-0.769-0.047
	c-0.525-0.019-1.05-0.028-1.584,0c-0.103-0.028-0.234-0.028-0.337,0.019c-0.328,0.019-0.656,0.056-0.975,0.094
	C10.209,6.581,8.072,7.94,6.263,9.75c-0.15,0.15-0.16,0.328-0.094,0.469c-0.019,0.047-0.028,0.103-0.028,0.159
	c0,3.038,0.188,6.066,0.272,9.104c0.047,1.509,0.056,3.028,0.009,4.537c-0.038,1.351-0.225,2.69-0.394,4.022
	c-0.338,2.672-0.685,5.438-0.104,8.1c0.45,2.053,1.575,3.703,3.432,4.716c1.715,0.938,3.759,1.181,5.681,1.219
	c2.644,0.047,5.297-0.366,7.931-0.581c1.481-0.122,2.972-0.197,4.453-0.16c1.256,0.028,2.503,0.188,3.75,0.301
	c2.166,0.188,4.359,0.243,6.487-0.272c2.119-0.516,3.976-1.79,5.054-3.703C43.838,35.662,43.912,33.253,43.781,31.041z
	 M17.859,15.487c0.112-0.975,0.15-1.959,0.197-2.943c0.075-1.772,0.131-3.544,0.141-5.307c1.097,0.113,2.185,0.244,3.281,0.3
	c2.953,0.141,5.907-0.207,8.84-0.478c2.344-0.216,4.632-0.394,6.919,0.291c1.95,0.581,3.703,1.847,4.604,3.703
	c0.769,1.575,0.975,3.366,0.966,5.137c-0.226-0.009-0.46,0.028-0.676,0.038c-0.309,0.009-0.609,0.019-0.918,0.019
	c-1.163,0.019-2.316,0.019-3.479,0.019c-2.315-0.009-4.641-0.056-6.956-0.056c-0.094,0-0.169,0.019-0.234,0.056
	c-1.341-1.078-2.935-1.828-4.659-2.109c-2.606-0.422-5.738,0.375-7.707,2.212c-0.056-0.028-0.122-0.038-0.197-0.038h-0.263
	C17.813,16.06,17.831,15.731,17.859,15.487z M30.347,29.391c-3.169,1.612-7.144,1.406-10.172-0.44
	c-2.662-1.632-3.431-5.053-3.131-7.969c0.131-0.066,0.225-0.197,0.234-0.394c0.131-2.616,2.203-4.322,4.547-5.081
	c2.503-0.816,5.306-0.347,7.472,1.106C33.31,19.303,35.597,26.709,30.347,29.391z M15.891,16.313
	c0.31-0.506,0.356-1.144,0.384-1.725c0.047-0.769,0.028-1.538,0.038-2.306c0.009-0.834,0.169-1.65,0.206-2.484
	c0.038-0.909,0.01-1.81-0.009-2.719c0.253,0.019,0.506,0.038,0.759,0.065c-0.009,0.038-0.019,0.084-0.019,0.131
	c0,1.547-0.047,3.094-0.112,4.641c-0.038,0.938-0.075,1.884-0.16,2.822c-0.028,0.328-0.056,0.656-0.103,0.975
	c-0.019,0.113-0.038,0.234-0.065,0.347c0,0.009-0.01,0.019-0.01,0.028c-0.056,0.075-0.084,0.16-0.094,0.244h-0.844
	C15.881,16.322,15.881,16.322,15.891,16.313z M14.4,7.022c0.394-0.009,0.778-0.009,1.172,0c0.009,0.825,0.038,1.65,0.028,2.475
	c-0.019,0.881-0.188,1.744-0.207,2.625c-0.019,0.675,0,1.359-0.019,2.034c-0.009,0.45-0.019,0.984-0.178,1.435
	c-0.131-0.094-0.281-0.169-0.469-0.225c-0.168-0.056-0.337-0.094-0.516-0.122C14.906,12.591,14.466,9.75,14.4,7.022z M14.1,16.19
	c0.309,0.047,0.6,0.113,0.722,0.432c0.094,0.244,0.075,0.553,0.056,0.844c-0.75,0.281-1.537,0.45-2.325,0.553
	c-0.741,0.094-1.931,0.263-2.541-0.3c-0.075-0.075-0.16-0.112-0.244-0.122c0.047-0.422,0.207-0.806,0.591-1.059
	c0.469-0.31,1.172-0.394,1.716-0.394C12.75,16.144,13.425,16.087,14.1,16.19z M12,7.322c0.478-0.112,0.975-0.188,1.462-0.234
	c0.066,2.606,0.488,5.306-0.141,7.856c-0.065,0.056-0.112,0.141-0.131,0.244c-0.394,0-0.797,0.019-1.181,0.028l0,0V7.322H12z
	 M10.172,7.959c0.291-0.141,0.591-0.272,0.9-0.375V15.3c-0.403,0.075-0.797,0.207-1.144,0.403c0.065-0.872,0.009-1.763-0.047-2.634
	c-0.103-1.566-0.394-3.15-0.403-4.725C9.694,8.212,9.928,8.081,10.172,7.959z M8.55,8.972c0.057,1.191,0.253,2.391,0.347,3.582
	c0.065,0.825,0.122,1.659,0.122,2.494c0,0.291-0.009,0.581-0.056,0.872c-0.009,0.047-0.019,0.094-0.028,0.141
	c0,0.019-0.01,0.037-0.01,0.047c-0.244,0.122-0.291,0.44-0.178,0.656c-0.019,0-0.047-0.01-0.066-0.01H7.275
	c-0.009,0-0.009,0-0.019,0c-0.084-2.156-0.178-4.303-0.178-6.459c0-0.019,0-0.028,0-0.047C7.538,9.797,8.034,9.366,8.55,8.972z
	 M42.844,33.778c-0.188,2.287-1.088,4.378-3.037,5.672c-1.81,1.2-4.098,1.406-6.207,1.388c-2.446-0.028-4.865-0.46-7.313-0.441
	c-2.99,0.02-5.953,0.45-8.934,0.666c-3.656,0.271-8.578,0.047-10.163-3.938c-0.994-2.513-0.646-5.466-0.337-8.081
	c0.16-1.351,0.347-2.69,0.45-4.05c0.112-1.435,0.094-2.878,0.075-4.313c-0.019-0.994-0.047-1.997-0.084-2.991
	c0.019,0,0.037,0,0.056,0h1.406c0.028,0,0.047,0,0.075-0.009c-0.009,0.094-0.009,0.188-0.009,0.281
	c-0.009,0.328,0.272,0.459,0.535,0.403c0.019,0.019,0.028,0.038,0.047,0.056c0.74,0.685,1.94,0.656,2.878,0.572
	c1.078-0.094,2.212-0.328,3.216-0.759c0.206-0.094,0.309-0.253,0.309-0.478c0-0.169,0-0.328,0-0.497
	c0.038,0.009,0.084,0.019,0.131,0.019h1.444c-0.647,0.862-1.06,1.894-1.134,3.084c-0.122,0.066-0.207,0.188-0.225,0.375
	c-0.263,2.363,0.094,4.81,1.35,6.862c1.34,2.185,3.881,3.338,6.318,3.778c2.653,0.487,5.635,0,7.913-1.481
	c2.128-1.387,3.047-3.797,2.868-6.262c-0.178-2.465-1.284-4.762-2.962-6.487c1.8,0.009,3.59,0.038,5.391,0.047
	c0.975,0.009,1.949,0.009,2.915,0.009c0.487,0,0.976-0.009,1.463-0.019c0.243,0,0.487-0.01,0.74-0.019
	c0.122,0,0.244-0.009,0.366-0.009l0.188-0.009c0.074,0.019,0.121,0.019,0.159,0.009c0,0,0,0,0.009,0.009
	c0.01,0.009,0.028,0.019,0.038,0.028c-0.028,0.647-0.075,1.293-0.132,1.922c-0.215,2.578-0.469,5.109-0.215,7.697
	C42.638,29.119,43.031,31.443,42.844,33.778z"/>
<path d="M27.291,21.516c-0.319-0.712-1.022-1.116-1.763-1.266c-1.209-0.244-2.972,0.206-3.535,1.416
	c-0.291,0.084-0.506,0.525-0.225,0.834c0.234,0.253,0.16,0.778,0.197,1.097c0.075,0.506,0.318,0.956,0.759,1.229
	c1.397,0.862,3.225,0.271,4.528-0.459c0.15-0.084,0.206-0.263,0.206-0.422C27.479,23.128,27.628,22.294,27.291,21.516z M26.55,23.69
	c-0.553,0.291-1.134,0.497-1.753,0.582c-0.506,0.075-1.369,0.056-1.734-0.384c-0.225-0.263-0.188-0.685-0.216-1.013
	c-0.019-0.197-0.056-0.384-0.122-0.553c0.019-0.028,0.047-0.065,0.056-0.112c0.337-0.91,1.603-1.172,2.466-1.06
	c0.563,0.075,1.05,0.356,1.247,0.91C26.672,22.556,26.588,23.147,26.55,23.69z"/>
<g>
	<path fill="#C1FFD7" d="M23.241,19.031c-0.891-0.272-1.81,0.188-1.959,1.144c-0.159,1.022,0.656,1.725,1.622,1.753
		c0.356,0.009,0.469-0.31,0.394-0.572c0.206-0.057,0.319-0.291,0.319-0.488v-1.406C23.625,19.228,23.428,19.087,23.241,19.031z
		 M22.688,20.203c-0.206,0.112-0.31,0.375-0.263,0.581c0,0.019,0,0.047,0,0.066c-0.15-0.113-0.244-0.291-0.215-0.497
		c0.028-0.319,0.225-0.45,0.478-0.459V20.203z"/>
</g>
</svg>
