<?xml version="1.0" encoding="utf-8"?>
<!-- Generator: Adobe Illustrator 15.0.0, SVG Export Plug-In . SVG Version: 6.00 Build 0)  -->
<!DOCTYPE svg PUBLIC "-//W3C//DTD SVG 1.1//EN" "http://www.w3.org/Graphics/SVG/1.1/DTD/svg11.dtd">
<svg version="1.1" id="Calque_1" xmlns="http://www.w3.org/2000/svg" xmlns:xlink="http://www.w3.org/1999/xlink" x="0px" y="0px"
	 width="48px" height="48px" viewBox="0 0 48 48" enable-background="new 0 0 48 48" xml:space="preserve">
<path fill="#4D96FF" d="M32.475,21.694c-0.3-0.675-0.609-1.359-0.609-2.119c0-0.638,0.291-1.163,0.356-1.772
	c0.028-0.244,0.019-0.403-0.243-0.469c-0.263-0.056-0.507-0.047-0.76,0.038c-0.497,0.159-1.068,0.478-1.406,0.909
	c-0.019,0.328-0.385,0.638-0.722,0.375c-1.19-0.919-2.963-0.947-4.397-0.891c-1.35,0.056-2.793,0.216-4.078,0.656
	c-0.075,0.028-0.16,0.038-0.225,0.028c-0.112,0-0.234-0.047-0.337-0.141c-0.356-0.347-0.722-0.685-1.116-0.984
	c-0.413-0.31-0.947-0.731-1.481-0.76c-1.05-0.056-0.384,1.856-0.141,2.709c0.197,0.131,0.3,0.394,0.141,0.647
	c-0.45,0.675-1.266,1.2-1.547,1.987c-0.271,0.769-0.244,1.566-0.056,2.354c0.16,0.712,0.441,1.35,0.891,1.931
	c0.347,0.45,0.928,1.182,1.584,1.06c0.141-0.028,0.263,0.01,0.356,0.075c1.2,0.178,2.184,1.125,2.465,2.307
	c0.319,1.368-0.459,2.559-1.762,3.009c-1.369,0.479-2.635,0.038-3.281-1.256c-0.216-0.422-0.338-0.919-0.609-1.313
	c-0.178-0.253-0.403-0.356-0.666-0.375c0.207,1.013,0.094,2.146,0.881,2.915c0.891,0.863,2.109,0.656,3.234,0.75
	c0.844,0.075,1.462,0.535,1.294,1.453c-0.103,0.582-0.337,1.153-0.535,1.716c-0.197,0.572-0.234,1.06-0.244,1.641
	c0.141,0.019,0.291,0.047,0.431,0.065c2.756,0.348,5.55-0.103,8.101-1.172c-0.057-0.141-0.057-0.309,0.065-0.469
	c0.169-0.225,0.159-0.609,0.149-0.871c-0.019-0.45-0.084-0.91-0.196-1.351c-0.179-0.731-0.385-1.537-0.807-2.165
	c-0.497-0.75-1.209-1.463-1.331-2.391c-0.104-0.788,0.318-2.016,1.229-2.101c0.112-0.009,0.215,0.019,0.29,0.065
	c0.882-0.112,1.781-0.262,2.616-0.571c0.797-0.3,1.443-0.713,2.034-1.322c0.506-0.524,0.928-1.181,0.975-1.922
	C33.065,23.147,32.803,22.416,32.475,21.694z"/>
<path fill="#B5DEFF" d="M38.053,20.878c-1.031-4.594-4.781-8.287-9.225-9.666c-2.1-0.647-4.341-0.872-6.506-0.478
	c-1.922,0.347-3.666,1.209-5.288,2.278c-1.734,1.153-3.384,2.531-4.622,4.228c-0.872,1.2-1.566,2.653-1.519,4.144
	c0,0.009-0.009,0.028-0.009,0.038c-0.028,0.525-0.084,1.041-0.131,1.565c-0.047,0.019-0.084,0.028-0.131,0.038
	c-0.057,0.619-0.15,1.247-0.169,1.875c-0.019,0.656-0.019,1.313,0.019,1.978c0.066,1.294,0.234,2.588,0.582,3.835
	c0.525,1.855,1.406,3.646,2.84,4.969c1.303,1.199,2.916,1.931,4.613,2.315v-0.065c0-0.02,0-0.047,0-0.066
	c0.009-0.459,0.047-0.891,0.206-1.359c0.188-0.581,0.45-1.172,0.563-1.771c0.056-0.318,0.056-0.365-0.262-0.412
	c-0.479-0.066-0.975-0.028-1.463-0.057c-0.572-0.037-1.162-0.122-1.678-0.375c-0.525-0.263-0.872-0.619-1.229-1.078
	c-0.75-0.975-0.469-2.25-0.9-3.338c-0.084-0.215,0.047-0.543,0.291-0.6c0.947-0.216,1.838-0.037,2.316,0.881
	c0.366,0.685,0.563,1.763,1.369,2.082c1.031,0.402,2.606-0.413,2.531-1.613c-0.065-1.059-0.881-1.894-1.931-1.996
	c-0.047,0-0.084-0.01-0.122-0.028c-0.788,0.019-1.481-0.534-1.978-1.125c-0.563-0.666-0.994-1.416-1.219-2.26
	c-0.263-0.994-0.347-1.997-0.065-2.99c0.253-0.891,0.965-1.444,1.509-2.128c-0.131-0.853-0.544-1.659-0.516-2.541
	c0.019-0.675,0.497-1.453,1.228-1.519c1.294-0.113,2.475,0.956,3.375,1.837c1.397-0.431,2.897-0.609,4.35-0.647
	c1.397-0.038,3.028,0.038,4.285,0.75c0.449-0.516,1.134-0.891,1.762-1.097c0.656-0.216,1.566-0.197,2.016,0.403
	c0.432,0.563,0.16,1.341-0.027,1.941c-0.272,0.881,0.037,1.659,0.402,2.456c0.385,0.853,0.723,1.791,0.629,2.747
	c-0.094,0.872-0.469,1.631-1.041,2.287c-0.646,0.741-1.416,1.331-2.344,1.679c-1.05,0.394-2.138,0.609-3.244,0.74
	c-0.084,0.01-0.159,0-0.225-0.019c-0.094,0.112-0.225,0.365-0.253,0.459c-0.065,0.188-0.075,0.385-0.038,0.581
	c0.085,0.432,0.366,0.825,0.619,1.172c0.45,0.619,0.844,1.21,1.106,1.941c0.281,0.787,0.506,1.631,0.581,2.465
	c0.037,0.413,0.047,0.844-0.057,1.247c1.473-0.731,2.832-1.678,4.031-2.794C36.581,30.534,39.15,25.763,38.053,20.878z"/>
<path fill="#B5DEFF" d="M44.737,16.134c-1.997-4.069-5.774-7.266-9.769-9.281c-4.003-2.034-8.644-3.103-13.134-2.391
	c-7.397,1.163-14.56,6.591-16.678,13.866c0,0.084-0.019,0.159-0.065,0.244c-0.038,0.131-0.075,0.272-0.104,0.403
	c-0.047,0.094-0.094,0.188-0.131,0.291c-0.01,0.084-0.028,0.178-0.038,0.253c-0.084,0.385-0.188,0.769-0.253,1.153
	c-0.131,0.722-0.103,1.472-0.356,2.156c-0.019,0.197-0.047,0.394-0.075,0.591c0,0.028,0,0.047,0,0.065
	c-0.047,0.413-0.084,0.825-0.122,1.237C3.938,25.584,3.9,26.447,3.909,27.31c0.028,1.696,0.225,3.394,0.647,5.034
	c0.816,3.122,2.391,6.075,4.875,8.185c1.707,1.453,3.703,2.409,5.85,3.028c2.344,0.684,4.781,1.068,7.228,1.078
	c4.829,0.009,9.675-1.304,13.65-4.098C43.51,35.362,49.05,24.9,44.737,16.134z M23.278,39.216c-4.332,0.394-9.084-0.862-11.55-4.697
	c-1.069-1.659-1.688-3.571-1.978-5.513c-0.15-1.012-0.234-2.034-0.234-3.056c0-0.534,0.009-1.069,0.038-1.604
	c0.038-0.59,0.15-1.172,0.168-1.753c0.01-0.225,0.15-0.384,0.328-0.45c-0.328-1.987,0.479-3.928,1.669-5.531
	c1.406-1.903,3.3-3.469,5.306-4.706c1.66-1.022,3.422-1.828,5.363-2.138c2.156-0.347,4.415-0.168,6.506,0.479
	c4.369,1.359,8.26,4.65,9.713,9.084C41.756,28.932,32.456,38.381,23.278,39.216z"/>
<path d="M21.375,3.591c-0.806,0.141-1.603,0.328-2.391,0.553h11.644C27.619,3.31,24.45,3.056,21.375,3.591z"/>
<path d="M44.709,14.175c-2.362-3.787-6.178-6.712-10.19-8.587c-1.256-0.581-2.56-1.069-3.899-1.444H18.984
	C12.225,6.122,6.15,11.381,4.228,18.178c-0.309,0.516-0.356,1.228-0.487,1.8c-0.094,0.403-0.16,0.816-0.216,1.228
	c-0.009,0.038-0.009,0.084-0.019,0.122c-0.009,0.028-0.019,0.047-0.019,0.075c-0.075,0.394-0.141,0.787-0.197,1.181
	c0,0.009-0.009,0.009-0.009,0.019c-0.047,0.113-0.056,0.216-0.038,0.3c-0.094,0.759-0.159,1.519-0.215,2.278
	C2.953,26.25,2.944,27.328,3,28.396c0.122,2.091,0.525,4.172,1.247,6.141c1.434,3.919,4.266,7.172,8.072,8.935
	c2.166,0.994,4.575,1.565,6.928,1.875c2.391,0.31,4.828,0.291,7.219-0.056c4.771-0.694,9.234-2.785,12.759-6.075
	c3.413-3.179,6.094-7.275,7.322-11.794C47.784,22.931,47.193,18.15,44.709,14.175z M36.15,40.547
	c-3.976,2.794-8.822,4.106-13.65,4.097c-2.438-0.009-4.875-0.394-7.219-1.078c-2.147-0.628-4.144-1.575-5.85-3.028
	c-2.484-2.109-4.059-5.063-4.875-8.184c-0.431-1.641-0.619-3.338-0.647-5.035c-0.019-0.862,0.019-1.725,0.104-2.587
	c0.037-0.413,0.075-0.825,0.122-1.238c0-0.019,0-0.047,0-0.065c0.028-0.197,0.056-0.394,0.075-0.591
	c0.253-0.684,0.225-1.444,0.356-2.156c0.075-0.384,0.169-0.769,0.253-1.153c0.019-0.075,0.028-0.16,0.038-0.253
	c0.037-0.094,0.084-0.197,0.131-0.291c0.038-0.131,0.066-0.272,0.104-0.403c0.047-0.084,0.075-0.168,0.065-0.244
	c2.119-7.284,9.281-12.712,16.678-13.875c4.491-0.712,9.122,0.356,13.134,2.391c3.994,2.016,7.763,5.222,9.769,9.281
	C49.05,24.9,43.51,35.362,36.15,40.547z"/>
<path fill="#010101" d="M38.597,19.341c-1.462-4.435-5.344-7.725-9.712-9.084c-2.091-0.647-4.341-0.825-6.507-0.478
	c-1.94,0.309-3.703,1.106-5.362,2.137c-2.006,1.238-3.891,2.813-5.306,4.707c-1.191,1.603-1.997,3.543-1.669,5.531
	c-0.168,0.065-0.319,0.215-0.328,0.45c-0.019,0.582-0.141,1.172-0.168,1.753c-0.028,0.534-0.038,1.068-0.038,1.603
	c0.009,1.022,0.084,2.044,0.234,3.057c0.291,1.94,0.909,3.854,1.978,5.513c2.466,3.825,7.219,5.081,11.55,4.696
	C32.456,38.381,41.756,28.932,38.597,19.341z M28.05,36.591c-0.122,0.159-0.122,0.328-0.065,0.469
	c-2.55,1.068-5.344,1.519-8.1,1.172c-0.141-0.019-0.291-0.038-0.431-0.065c0.009-0.582,0.047-1.069,0.244-1.641
	c0.188-0.563,0.422-1.135,0.535-1.716c0.168-0.919-0.459-1.378-1.294-1.453c-1.134-0.094-2.344,0.103-3.234-0.75
	c-0.797-0.76-0.675-1.903-0.881-2.916c0.263,0.01,0.488,0.112,0.666,0.375c0.272,0.394,0.403,0.882,0.609,1.313
	c0.647,1.304,1.913,1.734,3.281,1.257c1.294-0.45,2.082-1.641,1.763-3.01c-0.281-1.182-1.266-2.128-2.466-2.307
	c-0.094-0.065-0.206-0.103-0.356-0.074c-0.656,0.121-1.228-0.609-1.584-1.06c-0.45-0.581-0.722-1.219-0.891-1.932
	c-0.178-0.787-0.216-1.584,0.056-2.353c0.281-0.788,1.097-1.303,1.547-1.987c0.169-0.253,0.056-0.516-0.141-0.647
	c-0.244-0.862-0.909-2.766,0.141-2.709c0.544,0.028,1.078,0.45,1.481,0.759c0.394,0.3,0.769,0.638,1.116,0.984
	c0.103,0.104,0.215,0.141,0.337,0.141c0.075,0.01,0.15,0,0.225-0.028c1.284-0.441,2.728-0.609,4.078-0.656
	c1.435-0.056,3.206-0.028,4.396,0.891c0.338,0.262,0.703-0.047,0.722-0.375c0.338-0.431,0.9-0.75,1.406-0.91
	c0.263-0.084,0.497-0.094,0.76-0.037c0.271,0.056,0.271,0.225,0.244,0.469c-0.066,0.609-0.356,1.134-0.356,1.771
	c0,0.75,0.3,1.444,0.609,2.119c0.328,0.722,0.591,1.462,0.534,2.259c-0.047,0.75-0.469,1.397-0.975,1.921
	c-0.591,0.609-1.238,1.031-2.035,1.322c-0.834,0.31-1.734,0.469-2.615,0.572c-0.075-0.047-0.169-0.075-0.291-0.066
	c-0.909,0.085-1.331,1.313-1.228,2.101c0.122,0.928,0.834,1.641,1.331,2.391c0.422,0.628,0.628,1.435,0.807,2.165
	c0.103,0.441,0.168,0.891,0.196,1.351C28.219,35.981,28.229,36.365,28.05,36.591z M33.094,33.778
	c-1.2,1.115-2.568,2.063-4.031,2.794c0.104-0.403,0.094-0.835,0.057-1.247c-0.075-0.835-0.301-1.679-0.582-2.466
	c-0.262-0.731-0.656-1.313-1.105-1.94c-0.254-0.356-0.535-0.741-0.619-1.172c-0.037-0.197-0.028-0.394,0.037-0.581
	c0.028-0.094,0.16-0.348,0.254-0.46c0.065,0.019,0.141,0.038,0.225,0.019c1.106-0.131,2.193-0.347,3.244-0.74
	c0.928-0.347,1.688-0.938,2.344-1.678c0.571-0.656,0.956-1.416,1.04-2.288c0.094-0.956-0.243-1.894-0.628-2.747
	c-0.356-0.806-0.675-1.575-0.403-2.457c0.188-0.6,0.46-1.378,0.028-1.94c-0.45-0.6-1.359-0.619-2.016-0.403
	c-0.628,0.207-1.313,0.582-1.763,1.097c-1.256-0.722-2.888-0.788-4.284-0.75c-1.453,0.038-2.953,0.206-4.35,0.647
	c-0.9-0.881-2.081-1.95-3.375-1.838c-0.731,0.066-1.209,0.854-1.228,1.519c-0.028,0.872,0.384,1.688,0.516,2.541
	c-0.544,0.685-1.256,1.247-1.509,2.128c-0.281,0.994-0.197,1.997,0.065,2.991c0.225,0.844,0.656,1.594,1.219,2.259
	c0.497,0.591,1.191,1.144,1.978,1.125c0.038,0.01,0.075,0.019,0.122,0.028c1.05,0.104,1.866,0.928,1.931,1.997
	c0.075,1.19-1.509,2.006-2.531,1.612c-0.806-0.318-1.012-1.388-1.369-2.081c-0.478-0.919-1.369-1.097-2.315-0.882
	c-0.244,0.057-0.375,0.375-0.291,0.601c0.432,1.087,0.141,2.362,0.9,3.337c0.356,0.46,0.703,0.816,1.228,1.078
	c0.516,0.254,1.106,0.338,1.678,0.375c0.487,0.028,0.975-0.009,1.462,0.057c0.319,0.047,0.319,0.094,0.262,0.412
	c-0.112,0.601-0.375,1.191-0.563,1.772c-0.15,0.469-0.197,0.899-0.206,1.359c0,0.019,0,0.047,0,0.065v0.065
	c-1.706-0.384-3.31-1.115-4.612-2.315c-1.435-1.322-2.325-3.112-2.841-4.969c-0.347-1.247-0.516-2.541-0.581-3.834
	c-0.038-0.656-0.038-1.313-0.019-1.979c0.019-0.628,0.113-1.247,0.169-1.875c0.047-0.009,0.094-0.019,0.131-0.038
	c0.047-0.525,0.103-1.041,0.131-1.565c0-0.009,0-0.028,0.01-0.038c-0.047-1.491,0.646-2.935,1.519-4.144
	c1.228-1.697,2.878-3.075,4.622-4.229c1.612-1.068,3.365-1.931,5.287-2.278c2.175-0.394,4.406-0.169,6.507,0.478
	c4.443,1.378,8.193,5.072,9.225,9.666C39.15,25.763,36.581,30.534,33.094,33.778z"/>
</svg>
