<?xml version="1.0" encoding="utf-8"?>
<!-- Generator: Adobe Illustrator 15.0.0, SVG Export Plug-In . SVG Version: 6.00 Build 0)  -->
<!DOCTYPE svg PUBLIC "-//W3C//DTD SVG 1.1//EN" "http://www.w3.org/Graphics/SVG/1.1/DTD/svg11.dtd">
<svg version="1.1" id="Calque_1" xmlns="http://www.w3.org/2000/svg" xmlns:xlink="http://www.w3.org/1999/xlink" x="0px" y="0px"
	 width="48px" height="48px" viewBox="0 0 48 48" enable-background="new 0 0 48 48" xml:space="preserve">
<path fill="#B5DEFF" d="M25.256,18.15c0.169-0.694,0.638-1.434,1.388-1.603c0.778-0.178,1.565-0.141,2.362-0.188
	c0.01-1.444,0.057-2.906-0.027-4.341c-0.047-0.815-0.066-1.631-0.075-2.447c-1.416,0.047-2.841,0.122-4.257,0.169
	c-1.912,0.056-4.218,0.375-5.606,1.837c-0.881,0.928-1.219,2.119-1.228,3.384c-0.009,1.491,0.028,2.944-0.112,4.435
	c-0.057,0.572-0.104,1.144-0.16,1.725h-0.375c-0.056,0.028-0.122,0.047-0.197,0.047c-0.666-0.01-1.331-0.075-1.997-0.094
	c-0.365-0.01-0.731-0.019-1.106,0c-0.131,0.009-0.253,0.009-0.384,0.028c0.009,1.481,0.047,2.972-0.131,4.434
	c0.506,0.094,1.022,0.16,1.528,0.197c0.45,0.037,1.285,0.15,1.65-0.112c0.525-0.385,1.078,0.375,0.684,0.806
	c-0.15,3.854-0.112,7.707,0.131,11.551c0.703,0.027,1.397,0.056,2.119,0.056h5.663c-0.01-3.928-0.112-7.847-0.122-11.774h0.038
	c-0.066-0.291,0.074-0.629,0.459-0.629h2.466c0.028-0.027,0.056-0.056,0.094-0.084v-0.01c0.028-0.094,0.065-0.196,0.075-0.3
	c0.037-0.431,0.056-0.881,0.103-1.303c0.094-0.928,0.375-1.81,0.572-2.719c-0.291,0.019-0.563,0-0.75,0.009
	c-0.788,0.009-1.575-0.047-2.362-0.047c-0.085,0-0.16-0.019-0.226-0.047H25.06c0-0.056,0-0.113,0-0.169
	C25.088,20.034,25.031,19.05,25.256,18.15z"/>
<path fill="#4D96FF" d="M43.481,14.991c-1.51-4.369-4.378-8.166-8.56-10.275c-4.771-2.41-10.406-2.635-15.6-1.81
	c-4.668,0.741-9.59,2.428-13.087,5.728c-1.837,1.734-3.253,3.834-4.003,6.263c-0.75,2.438-0.975,4.978-1.135,7.509
	c-0.009,0.103-0.037,0.188-0.094,0.253c0,0.019,0.01,0.047,0.01,0.075c0,4.959-0.104,10.153,2.822,14.428
	c2.372,3.479,6.047,5.766,10.05,6.91c8.25,2.362,18.207,0.899,24.834-4.763C45.675,33.375,46.313,23.156,43.481,14.991z
	 M27.563,20.147c0.385,0,0.778,0,1.162-0.028c0.132-0.009,0.263-0.019,0.395-0.047c0.3-0.347,1.021-0.112,0.928,0.459
	C30.028,20.616,30,20.7,29.963,20.766c0,0.047,0,0.103-0.01,0.159c-0.15,0.778-0.385,1.538-0.544,2.307
	c-0.141,0.703-0.178,1.435-0.234,2.146c-0.019,0.291-0.141,0.807-0.365,1.003c-0.028,0.028-0.065,0.057-0.094,0.075
	c-0.075,0.132-0.206,0.226-0.413,0.226h-2.25c0.02,3.881,0.122,7.753,0.122,11.634c0,0.141-0.047,0.253-0.112,0.347
	c-0.019,0.226-0.178,0.422-0.469,0.422h-7.303c-0.272,0-0.543-0.009-0.815-0.037c-0.038,0-0.075-0.01-0.122-0.01
	c-0.178,0.16-0.45,0.216-0.694,0.01c-0.159-0.141-0.244-0.291-0.253-0.44c-0.065-0.075-0.112-0.179-0.122-0.31
	c-0.253-3.769-0.3-7.547-0.168-11.325c0-0.056,0-0.103,0.009-0.159c-0.413,0.037-0.853,0-1.219-0.028
	c-0.759-0.047-1.519-0.149-2.259-0.31c-0.291-0.065-0.469-0.337-0.422-0.628c0.262-1.65,0.188-3.328,0.188-4.987l0,0v-0.019
	c0-0.178,0.075-0.319,0.178-0.413c0.309-0.582,1.443-0.459,1.969-0.441c0.637,0.019,1.266,0.066,1.903,0.094
	c0.038-0.056,0.075-0.103,0.122-0.141c0.075-0.74,0.131-1.481,0.168-2.231c0.057-1.453-0.206-2.981,0.16-4.416
	c0.281-1.088,0.815-2.035,1.668-2.775c1.547-1.34,3.731-1.781,5.729-1.856c1.894-0.075,3.787-0.178,5.69-0.216v1.069
	c-0.019,0-0.028,0-0.047,0c0.01,0.572,0.028,1.134,0.047,1.697v0.675h0.028c0,0.065,0.009,0.131,0.009,0.197
	c0.057,1.538,0.01,3.084,0.01,4.622c0,0.197-0.084,0.338-0.206,0.432c-0.075,0.112-0.206,0.197-0.375,0.215
	c-0.46,0.047-0.929,0.047-1.388,0.066c-0.385,0.009-0.872-0.019-1.229,0.159c-0.618,0.3-0.646,1.116-0.675,1.725
	c-0.009,0.262-0.019,0.525-0.028,0.778C26.615,20.128,27.094,20.147,27.563,20.147z"/>
<path d="M44.766,15.638c-1.331-4.397-3.834-8.278-7.688-10.847c-4.35-2.906-9.872-3.6-14.981-3.225
	C17.25,1.913,12.281,3.234,8.166,5.869c-2.025,1.294-3.834,2.991-5.156,5.006C1.612,13.003,0.9,15.45,0.516,17.944
	c-0.216,1.416-0.319,2.84-0.413,4.275c-0.009,0.084,0.009,0.169,0.038,0.244C0.056,22.547,0,22.669,0,22.819
	c0,2.822-0.056,5.663,0.431,8.457c0.45,2.54,1.425,4.959,2.962,7.04c2.738,3.703,6.891,5.935,11.288,7.031
	c8.334,2.081,18.207,0.347,24.797-5.353C46.425,33.994,47.278,23.981,44.766,15.638z M38.729,39.31
	c-6.638,5.662-16.585,7.125-24.835,4.763c-4.003-1.145-7.678-3.432-10.05-6.91c-2.916-4.274-2.822-9.469-2.822-14.428
	c0-0.028,0-0.047-0.009-0.075c0.047-0.065,0.084-0.15,0.094-0.253c0.159-2.531,0.384-5.072,1.134-7.509
	c0.741-2.428,2.166-4.528,4.003-6.263c3.497-3.3,8.419-4.987,13.087-5.728c5.203-0.825,10.828-0.6,15.601,1.81
	c4.181,2.109,7.04,5.916,8.559,10.275C46.313,23.156,45.675,33.375,38.729,39.31z"/>
<path d="M29.119,20.081c-0.132,0.019-0.263,0.038-0.395,0.047c-0.384,0.028-0.777,0.028-1.162,0.028
	c-0.469,0-0.947-0.028-1.416-0.038c0.01-0.262,0.02-0.525,0.028-0.778c0.028-0.609,0.057-1.425,0.675-1.725
	c0.356-0.178,0.844-0.141,1.229-0.16c0.459-0.019,0.928-0.009,1.388-0.065c0.178-0.019,0.3-0.103,0.375-0.216
	c0.122-0.094,0.206-0.244,0.206-0.431c0-1.538,0.047-3.084-0.01-4.622c0-0.066-0.009-0.131-0.009-0.197H30V11.25
	c-0.019-0.563-0.037-1.134-0.047-1.697c0.019,0,0.028,0,0.047,0V8.466c-1.894,0.037-3.797,0.15-5.69,0.215
	c-1.997,0.075-4.172,0.516-5.729,1.856c-0.853,0.741-1.387,1.688-1.668,2.775c-0.366,1.425-0.103,2.962-0.16,4.416
	c-0.028,0.741-0.094,1.491-0.168,2.231c-0.047,0.038-0.094,0.084-0.122,0.141c-0.637-0.019-1.266-0.075-1.903-0.094
	c-0.525-0.009-1.66-0.141-1.969,0.44c-0.104,0.094-0.178,0.234-0.178,0.413v0.019l0,0c0,1.66,0.075,3.347-0.188,4.987
	c-0.047,0.291,0.131,0.563,0.422,0.629c0.741,0.159,1.5,0.262,2.259,0.309c0.366,0.028,0.797,0.066,1.219,0.028
	c0,0.057-0.009,0.104-0.009,0.159c-0.131,3.778-0.084,7.557,0.168,11.325c0.01,0.132,0.057,0.226,0.122,0.31
	c0.009,0.15,0.094,0.3,0.253,0.44c0.234,0.206,0.516,0.15,0.694-0.009c0.038,0,0.075,0.009,0.122,0.009
	c0.272,0.028,0.534,0.038,0.815,0.038h7.303c0.3,0,0.45-0.197,0.469-0.422c0.075-0.085,0.112-0.207,0.112-0.348
	c0-3.881-0.103-7.753-0.122-11.634h2.25c0.197,0,0.338-0.094,0.413-0.226c0.037-0.019,0.065-0.047,0.094-0.074
	c0.225-0.207,0.337-0.723,0.365-1.004c0.057-0.712,0.094-1.453,0.234-2.146c0.15-0.778,0.394-1.528,0.544-2.306
	c0.01-0.056,0.01-0.103,0.01-0.16c0.047-0.065,0.074-0.141,0.084-0.234C30.15,19.969,29.419,19.734,29.119,20.081z M28.229,23.925
	c-0.047,0.432-0.066,0.882-0.104,1.304c-0.01,0.103-0.047,0.206-0.075,0.3v0.009c-0.037,0.02-0.065,0.047-0.094,0.085H25.5
	c-0.385,0-0.525,0.337-0.459,0.628h-0.038c0.01,3.928,0.112,7.847,0.122,11.775h-5.653c-0.722,0-1.416-0.028-2.119-0.057
	c-0.244-3.844-0.281-7.697-0.131-11.55c0.394-0.432-0.159-1.19-0.684-0.807c-0.356,0.263-1.191,0.15-1.65,0.112
	c-0.516-0.037-1.022-0.103-1.528-0.196c0.178-1.472,0.141-2.963,0.131-4.435c0.131-0.019,0.253-0.028,0.384-0.028
	c0.366-0.019,0.731-0.009,1.106,0c0.666,0.019,1.331,0.084,1.997,0.094c0.075,0,0.141-0.019,0.197-0.047h0.375
	c0.047-0.572,0.104-1.144,0.16-1.725c0.15-1.491,0.112-2.944,0.112-4.435c0-1.266,0.347-2.456,1.228-3.384
	c1.388-1.462,3.694-1.781,5.606-1.837c1.416-0.047,2.841-0.113,4.256-0.169c0,0.815,0.028,1.622,0.075,2.447
	c0.085,1.444,0.038,2.897,0.028,4.341c-0.787,0.047-1.575,0.019-2.362,0.188c-0.75,0.168-1.219,0.918-1.388,1.603
	c-0.216,0.9-0.169,1.884-0.197,2.794c0,0.056,0,0.112,0,0.168h0.413c0.065,0.028,0.141,0.047,0.225,0.047
	c0.788,0,1.575,0.056,2.362,0.047c0.188,0,0.46,0.009,0.75-0.009C28.604,22.106,28.331,22.997,28.229,23.925z"/>
</svg>
