<?xml version="1.0" encoding="utf-8"?>
<!-- Generator: Adobe Illustrator 15.0.0, SVG Export Plug-In . SVG Version: 6.00 Build 0)  -->
<!DOCTYPE svg PUBLIC "-//W3C//DTD SVG 1.1//EN" "http://www.w3.org/Graphics/SVG/1.1/DTD/svg11.dtd">
<svg version="1.1" id="Calque_1" xmlns="http://www.w3.org/2000/svg" xmlns:xlink="http://www.w3.org/1999/xlink" x="0px" y="0px"
	 width="48px" height="48px" viewBox="0 0 48 48" enable-background="new 0 0 48 48" xml:space="preserve">
<path fill="#FF6B6B" d="M35.09,40.79c-3.97,2.8-8.82,4.11-13.65,4.101c-2.45-0.011-4.89-0.4-7.23-1.08
	c-2.14-0.621-4.14-1.58-5.85-3.03C5.88,38.67,4.3,35.72,3.49,32.6c-0.42-1.64-0.62-3.34-0.65-5.039c-0.01-0.86,0.03-1.721,0.11-2.58
	c0.03-0.42,0.07-0.831,0.12-1.24v-0.07c0.02-0.19,0.05-0.39,0.07-0.59c0.25-0.68,0.23-1.43,0.36-2.15c0.06-0.39,0.16-0.77,0.25-1.16
	c0.01-0.07,0.03-0.17,0.04-0.25c0.03-0.11,0.08-0.2,0.13-0.29c0.03-0.13,0.06-0.27,0.1-0.41c0.05-0.08,0.07-0.16,0.07-0.24
	C6.2,11.3,13.37,5.88,20.77,4.71C25.25,4,29.891,5.07,33.9,7.11c3.99,2.01,7.77,5.21,9.77,9.28
	C47.98,25.141,42.439,35.62,35.09,40.79z"/>
<path fill="#FFFFFF" d="M18.336,45.064c0.941-1.978,1.655-4.271,2.259-6.375c0.302-1.053,0.561-2.117,0.775-3.19
	c0.057-0.285,0.085-1.413,0.293-1.582c0.292-0.237,0.573,0.421,0.77,0.599c0.537,0.487,1.23,0.795,1.935,0.942
	c1.063,0.224,2.167,0.121,3.248,0.01c1.008-0.104,2.032-0.219,2.963-0.62c1.097-0.474,1.991-1.313,2.839-2.156
	c0.766-0.76,1.523-1.545,2.092-2.465c1.307-2.108,1.508-4.715,1.403-7.193c-0.097-2.313-0.452-4.685-1.636-6.674
	c-0.803-1.348-1.949-2.456-3.151-3.464c-0.288-0.242-0.584-0.481-0.927-0.636c-0.381-0.172-0.801-0.232-1.196-0.363
	c-0.532-0.177-1.013-0.482-1.515-0.735c-1.481-0.747-3.188-1.027-4.833-0.83c-1.664,0.2-3.44,0.746-4.933,1.503
	c-0.741,0.376-1.492,0.509-2.13,1.041c-0.511,0.426-1.327,0.924-1.75,1.438c-1.332,1.615-2.598,3.144-3.438,5.063
	c-0.84,1.919-0.822,4.546-0.086,6.506c0.773,2.063,2.798,4.695,4.039,5.354c0.021,0.012,0.623-1.096,0.704-1.402
	c0.164-0.617,0.558-1.189,0.5-1.688c-0.116-1-1.276-1.573-1.543-2.543c-0.439-1.597-0.292-3.311,0.154-4.904
	c0.257-0.918,0.617-1.819,1.189-2.582C17.357,16.794,18.9,16,20.45,15.416c1.438-0.542,2.953-0.945,4.489-0.924
	c1.535,0.021,3.105,0.498,4.24,1.536c0.618,0.567,1.086,1.276,1.586,1.952c0.426,0.578,0.885,1.149,1.137,1.822
	c0.248,0.66,0.283,1.378,0.305,2.083c0.029,0.985,0.036,1.979-0.145,2.948c-0.226,1.212-0.735,2.351-1.24,3.476
	c-0.229,0.508-0.459,1.02-0.764,1.484c-0.893,1.359-2.442,2.264-4.064,2.369c-0.624,0.041-1.282-0.04-1.804-0.385
	c-0.86-0.569-1.148-1.711-1.116-2.741c0.088-2.789,1.974-5.456,1.37-8.18c-0.114-0.515-0.326-1.024-0.7-1.395
	c-0.884-0.877-2.45-0.697-3.4,0.109c-0.95,0.806-1.396,2.056-1.644,3.277c-0.202,0.996-0.283,2.092,0.23,2.969
	c0.176,0.302,0.422,0.578,0.485,0.92c0.052,0.285-0.03,0.576-0.116,0.854c-1.09,3.508-2.964,6.971-2.536,10.618
	c0.102,0.872-0.026,1.916,0.018,2.793c0.036,0.719-0.067,1.269-0.219,1.969c-0.134,0.619-0.344,1.142-0.326,1.77L18.336,45.064z"/>
<path fill="#010101" d="M18.336,45.563c-0.025,0-0.051-0.002-0.077-0.006l-2.1-0.326c-0.238-0.037-0.417-0.238-0.423-0.479
	c-0.015-0.521,0.104-0.969,0.217-1.401c0.042-0.158,0.084-0.319,0.12-0.488c0.143-0.657,0.241-1.174,0.208-1.838
	c-0.019-0.385-0.007-0.803,0.006-1.225c0.016-0.525,0.033-1.07-0.021-1.535c-0.334-2.847,0.668-5.568,1.638-8.199
	c0.317-0.861,0.646-1.752,0.917-2.625c0.071-0.229,0.132-0.447,0.102-0.614c-0.027-0.147-0.138-0.313-0.254-0.489
	c-0.059-0.089-0.118-0.178-0.171-0.27c-0.64-1.094-0.471-2.419-0.288-3.321c0.333-1.644,0.926-2.807,1.811-3.558
	c1.077-0.915,2.942-1.207,4.075-0.083c0.402,0.398,0.683,0.951,0.837,1.642c0.377,1.703-0.136,3.354-0.63,4.952
	c-0.341,1.102-0.694,2.241-0.729,3.353c-0.033,1.055,0.301,1.917,0.892,2.309c0.367,0.242,0.871,0.346,1.495,0.303
	c1.464-0.096,2.874-0.917,3.68-2.145c0.283-0.433,0.498-0.91,0.726-1.414c0.485-1.084,0.989-2.203,1.204-3.362
	c0.177-0.945,0.164-1.922,0.137-2.842c-0.021-0.711-0.055-1.347-0.271-1.921c-0.197-0.527-0.547-0.996-0.918-1.493l-0.416-0.567
	c-0.403-0.559-0.785-1.087-1.259-1.521c-0.967-0.886-2.354-1.385-3.909-1.405c-1.283-0.006-2.645,0.267-4.306,0.892
	c-1.174,0.443-2.852,1.187-3.863,2.534c-0.463,0.617-0.825,1.407-1.108,2.416c-0.478,1.709-0.53,3.269-0.153,4.637
	c0.094,0.344,0.367,0.656,0.655,0.987c0.385,0.442,0.822,0.944,0.902,1.631c0.051,0.442-0.123,0.862-0.292,1.269
	c-0.081,0.194-0.166,0.396-0.221,0.604c-0.004,0.015-0.623,1.573-0.985,1.731c-0.14,0.063-0.302,0.058-0.438-0.016
	c-1.39-0.738-3.466-3.471-4.272-5.621c-0.804-2.146-0.766-4.912,0.097-6.882c0.862-1.971,2.137-3.517,3.486-5.152
	c0.345-0.417,0.817-0.765,1.274-1.101c0.204-0.15,0.401-0.293,0.564-0.43c0.473-0.395,0.983-0.593,1.477-0.784
	c0.247-0.096,0.498-0.192,0.748-0.318c1.57-0.796,3.381-1.348,5.099-1.554c1.757-0.21,3.575,0.103,5.118,0.88
	c0.15,0.075,0.298,0.155,0.447,0.236c0.341,0.184,0.664,0.358,1,0.47c0.144,0.048,0.291,0.085,0.438,0.123
	c0.262,0.067,0.535,0.137,0.807,0.259c0.396,0.179,0.719,0.438,1.042,0.709c1.042,0.874,2.354,2.071,3.26,3.591
	c1.365,2.293,1.627,5.042,1.705,6.909c0.086,2.047,0.026,5.051-1.478,7.478c-0.605,0.978-1.401,1.799-2.166,2.556
	c-0.871,0.866-1.82,1.753-2.992,2.26c-1.033,0.445-2.186,0.563-3.11,0.658c-0.991,0.102-2.224,0.229-3.402-0.02
	c-0.849-0.178-1.599-0.545-2.168-1.061c-0.051-0.046-0.097-0.1-0.142-0.156c-0.019,0.155-0.033,0.312-0.042,0.41
	c-0.018,0.198-0.036,0.365-0.054,0.456c-0.216,1.083-0.48,2.169-0.785,3.23c-0.588,2.05-1.32,4.419-2.288,6.452
	C18.704,45.455,18.527,45.563,18.336,45.563z M16.762,44.313l1.28,0.198c0.86-1.892,1.529-4.063,2.073-5.961
	c0.297-1.034,0.555-2.095,0.766-3.149c0.014-0.07,0.024-0.2,0.039-0.354c0.08-0.859,0.148-1.291,0.43-1.52
	c0.157-0.127,0.349-0.185,0.54-0.156c0.369,0.051,0.59,0.367,0.769,0.62c0.042,0.061,0.08,0.118,0.116,0.155
	c0.435,0.395,1.023,0.679,1.698,0.82c0.951,0.199,1.921,0.124,3.093,0.002c1.091-0.111,1.99-0.226,2.816-0.582
	c1.014-0.437,1.848-1.219,2.686-2.051c0.721-0.715,1.471-1.488,2.02-2.373c1.359-2.193,1.409-4.994,1.329-6.91
	c-0.074-1.759-0.315-4.341-1.565-6.438c-0.828-1.391-2.061-2.514-3.043-3.337c-0.277-0.234-0.531-0.438-0.812-0.564
	c-0.205-0.092-0.424-0.146-0.644-0.202c-0.168-0.043-0.338-0.087-0.504-0.143c-0.42-0.14-0.797-0.343-1.16-0.54
	c-0.141-0.075-0.279-0.151-0.422-0.222c-1.369-0.69-2.985-0.969-4.548-0.78c-1.582,0.189-3.319,0.719-4.766,1.453
	c-0.28,0.142-0.562,0.252-0.838,0.359c-0.457,0.177-0.851,0.33-1.198,0.619c-0.178,0.148-0.391,0.306-0.613,0.469
	c-0.389,0.286-0.83,0.609-1.072,0.903c-1.327,1.608-2.559,3.101-3.365,4.944c-0.765,1.749-0.795,4.212-0.076,6.131
	c0.684,1.823,2.3,3.959,3.403,4.819c0.165-0.313,0.356-0.7,0.388-0.82c0.067-0.251,0.167-0.496,0.265-0.732
	c0.12-0.287,0.243-0.586,0.222-0.77c-0.044-0.379-0.331-0.708-0.663-1.09c-0.333-0.381-0.71-0.815-0.865-1.377
	c-0.425-1.546-0.374-3.286,0.154-5.172c0.316-1.131,0.732-2.029,1.271-2.747c1.167-1.556,3.019-2.383,4.31-2.869
	c1.781-0.67,3.238-0.972,4.672-0.956c1.799,0.024,3.422,0.616,4.571,1.667c0.549,0.502,0.979,1.097,1.395,1.672l0.406,0.556
	c0.396,0.531,0.805,1.079,1.053,1.738c0.27,0.717,0.313,1.471,0.335,2.244c0.028,0.974,0.041,2.012-0.153,3.054
	c-0.236,1.277-0.765,2.453-1.275,3.589c-0.233,0.518-0.475,1.055-0.803,1.555c-0.974,1.483-2.679,2.478-4.449,2.593
	c-0.846,0.058-1.56-0.101-2.112-0.468c-0.896-0.592-1.385-1.748-1.34-3.172c0.04-1.248,0.413-2.453,0.774-3.617
	c0.478-1.542,0.928-2.997,0.608-4.439c-0.111-0.501-0.301-0.887-0.564-1.148c-0.707-0.701-1.979-0.498-2.724,0.135
	c-0.707,0.6-1.19,1.58-1.477,2.995c-0.239,1.177-0.185,2.009,0.171,2.618c0.044,0.075,0.092,0.148,0.141,0.222
	c0.159,0.239,0.34,0.512,0.404,0.86c0.072,0.392-0.025,0.754-0.13,1.092c-0.279,0.897-0.612,1.802-0.934,2.676
	c-0.972,2.637-1.889,5.128-1.583,7.736c0.063,0.539,0.045,1.121,0.028,1.683c-0.012,0.394-0.025,0.784-0.007,1.144
	c0.039,0.784-0.076,1.389-0.229,2.101c-0.04,0.183-0.085,0.358-0.131,0.528C16.855,43.854,16.794,44.084,16.762,44.313z"/>
<path d="M43.641,14.43c-2.363-3.789-6.18-6.715-10.19-8.59c-4.06-1.895-8.707-2.766-13.152-1.996
	c-7.668,1.332-15,7.004-17.148,14.586c-0.309,0.516-0.355,1.23-0.484,1.801c-0.094,0.402-0.16,0.816-0.219,1.23
	c-0.008,0.035-0.008,0.082-0.016,0.121c-0.012,0.027-0.02,0.047-0.02,0.074c-0.074,0.395-0.141,0.789-0.199,1.18
	c0,0.012-0.008,0.012-0.008,0.02c-0.047,0.113-0.055,0.215-0.039,0.301c-0.094,0.758-0.156,1.52-0.215,2.276
	c-0.074,1.07-0.082,2.148-0.027,3.215c0.121,2.095,0.523,4.172,1.246,6.142c1.434,3.922,4.266,7.172,8.074,8.938
	c2.164,0.991,4.574,1.563,6.926,1.875c2.391,0.309,4.828,0.289,7.22-0.06c4.772-0.69,9.233-2.785,12.762-6.074
	c3.41-3.18,6.094-7.272,7.32-11.793C46.715,23.184,46.125,18.402,43.641,14.43z M35.082,40.789
	c-3.977,2.797-8.824,4.109-13.652,4.098c-2.445-0.008-4.883-0.395-7.227-1.078c-2.148-0.629-4.145-1.574-5.852-3.026
	c-2.484-2.109-4.059-5.063-4.875-8.185c-0.43-1.641-0.617-3.34-0.645-5.035c-0.02-0.862,0.02-1.727,0.102-2.586
	c0.039-0.414,0.074-0.828,0.121-1.237c0-0.021,0-0.047,0-0.066c0.031-0.195,0.059-0.395,0.078-0.59
	c0.25-0.684,0.223-1.445,0.355-2.156c0.074-0.387,0.168-0.77,0.254-1.152c0.016-0.078,0.027-0.16,0.035-0.254
	c0.039-0.094,0.086-0.199,0.133-0.293c0.035-0.129,0.066-0.27,0.102-0.402c0.047-0.082,0.074-0.168,0.066-0.242
	c2.117-7.277,9.281-12.703,16.68-13.867c4.488-0.711,9.121,0.355,13.134,2.391c3.991,2.016,7.762,5.223,9.77,9.281
	C47.98,25.145,42.441,35.617,35.082,40.789z"/>
</svg>
