<svg xmlns="http://www.w3.org/2000/svg"  viewBox="0 0 512 512" width="35px" height="35px"><path fill="#D4E2A9" d="M243.1,243c-0.1,0-0.2,0.1-0.3,0.1c0.3,7.8-0.5,15.7-1.6,23.4c-1.4,9.6-3.8,19.4-4.3,29.1c-1,20.4-1.9,40.9-2.9,61.3c-1,21.3-1.5,42.5-2.1,63.8c-0.3,10.9-0.7,21.9-1.2,32.8c-0.2,4.3-0.3,8.6-1,12.9c-0.4,2.2-1.8,5.9-1.3,8.1c0.3,1.4,0,2.7-0.6,3.7c0.4,0.4,0.9,0.8,1.4,1.1c4.1,3.3,8.2,6.8,12.6,9.6c3-9.7,2.1-19.8,2.4-29.8c0.3-10.3,1.1-20.5,1.7-30.8c1.2-20.8,2.5-41.7,3.6-62.5c2.3-40.7,4.1-81.4,4.2-122.2C250.2,242.5,246.7,241.5,243.1,243z"/><path fill="#BCBCBC" d="M381.4,116.7c-5-21-12.7-41.9-33.2-52.1c-21-10.5-46.6-15-69.9-15.1c-22.7-0.1-47.6,3.4-66,17.8c-17,13.3-29.6,33.4-35.6,54.1c-2.9,10-4.8,20.5-4,31c0.9,12.2,5.8,24.2,12.4,34.5c6.6,10.4,15,18.7,23.2,27.8c5.8,6.4,9.4,13.1,10.6,21.3c0.8,0.7,1.3,1.7,1.3,3.1c-0.1,30.4-3.1,60.7-4.3,91.1c-1.2,30.6-1.8,61.3-2.1,91.9c-0.1,7.9,0,15.7-0.1,23.6c-0.1,6.4-0.7,14,2.7,19.7c0.9,1.5,1.9,3,3,4.4c0.5-4.6,1.8-9.3,2-13.7c0.5-10.9,0.9-21.9,1.2-32.8c0.6-21.9,1-43.8,2.1-65.7c1-21,2-42,3-63c0.9-18.7,7.3-36.7,5.6-55.7c-0.4-3.9,3.5-5.6,6.4-4.5c0.1-0.1,0.3-0.1,0.4-0.2c7-2.9,13.5-0.3,20.3,2.1c1.4,0.5,2.6,2.4,2.6,3.8c0,42.9-2,85.9-4.5,128.7c-1.2,21.5-2.5,42.9-3.7,64.4c-0.6,10.1-1.4,20.2-1.4,30.3c0,9.2,0.2,18.5-2.5,27.4c-0.2,0.6-0.5,1.2-0.9,1.7c0.8,0.1,1.7,0,2.5-0.3c3.2-1.1,5.9-3.2,8.4-5.5c4.5-4.1,8.6-8.7,13.1-12.7c4-3.5,8.3-6.8,12.6-9.9c3-2.2,7.7-5.5,5.8-9.8c-2.9-6.9-13.1-10.4-13-18.9c0.1-10,9-15,14.8-21.8c3.1-3.7,5.4-8.5,2.6-13.1c-2.3-3.8-5.8-6.9-7.8-10.9c-4.6-8.7-3.8-17.4,2.1-25.3c2.4-3.2,5.4-6.2,7.1-9.8c2.1-4.6,0.4-8.5-1.9-12.7c-2.6-5-4.9-10.8-3.4-16.5c1.5-5.8,5-10.4,8.9-14.9c3.7-4.3,10.4-10.2,8.1-16.5c-2-5.3-5.7-10-6.7-15.6c-1.1-5.9,0.1-9.8,2.8-14.9c2.1-4,0.8-7.4,0.1-11.3c-0.7-0.7-1.2-1.7-1.3-2.9c-0.7-12,5.3-21.5,15.7-27.3c7.4-4.1,15.5-6.6,22.9-10.7c9.5-5.3,18.3-12.9,25.5-21c7.7-8.7,14.5-19.1,16.3-30.9C387.1,145.5,384.6,130.2,381.4,116.7z M287.3,143c-18.6,3.9-39.6-2.9-44.8-23.1c-3.5-13.3-2.5-37.2,13.3-42.4c0.2-0.5,0.5-1,0.9-1.5c4.4-5,10.9-6.3,17.3-5.7c18.2,1.5,34.6,12.8,38.9,31C317.5,120.4,306.8,138.9,287.3,143z"/><path fill="#010101" d="M393.3,130.1c-1.8-13.1-5.1-26.4-10-38.7c-3.6-9.1-8.7-17.4-15.6-24.3c-7.3-7.3-16.8-11.9-26.3-15.4c-22.7-8.3-47.1-12-71.2-11.3c-22.4,0.7-46,6-63.9,20c-17,13.4-29.4,32.8-36.5,53c-7.6,21.3-8.7,43.4,0.3,64.5c5.4,12.7,13.7,23.9,22.9,34.1c4,4.4,8.6,8.3,12.2,13.1c3.7,4.9,4.9,10.5,5,16.6c0,1.1,0.4,2,0.9,2.7c-0.3,28.9-3.1,57.7-4.3,86.6c-1.3,30.6-1.8,61.3-2.1,91.9c-0.1,7.3-0.1,14.6-0.1,21.9c0,7-0.3,13.8,1.8,20.6c3.4,11.4,14.6,19.5,23.5,26.4c4.4,3.4,9.2,7,14.5,8.9c5.9,2.1,11.3,0.8,16.6-2.2c5-2.8,9.4-7.9,13.4-11.9c4.6-4.6,9.3-8.7,14.5-12.6c7.6-5.7,15.8-11.9,12.3-22.7c-1.2-3.9-4.3-7-7.2-9.7c-1.9-1.8-6.2-4.8-5.1-7.9c1.5-4,5.3-7.1,8.4-9.9c3.6-3.3,6.8-6.9,8.7-11.4c4.4-10.6-2.3-17.8-8.1-25.9c-6.1-8.6-0.4-15.1,4.9-22c6.1-7.9,7.3-16.4,2.5-25.4c-2.9-5.5-4.8-10.1-1.6-16c3.1-5.7,8.6-10.1,12.2-15.5c3.1-4.6,4.6-9.9,3.1-15.3c-1.8-6.1-6-11.1-7.2-17.4c-0.8-4,3.2-7.9,4.3-11.6c1.5-5.2-1-9.7-1.2-14.8c0-1.1-0.4-1.9-0.9-2.6c1-16.5,22.2-20.5,34.5-27.1c9.4-5,18-12.8,25.3-20.5c8-8.4,14.7-18.4,18.3-29.4C396.1,156.5,395.1,142.9,393.3,130.1z M249.4,365.9c-1.2,20.8-2.4,41.7-3.6,62.5c-0.6,10.3-1.3,20.5-1.7,30.8c-0.3,10,0.5,20-2.4,29.8c-4.5-2.8-8.6-6.2-12.6-9.6c-0.5-0.4-0.9-0.8-1.4-1.1c0.6-1,0.9-2.3,0.6-3.7c-0.5-2.2,0.9-5.9,1.3-8.1c0.8-4.3,0.8-8.6,1-12.9c0.5-10.9,0.9-21.9,1.2-32.8c0.6-21.3,1-42.6,2.1-63.8c1-20.4,1.9-40.9,2.9-61.3c0.5-9.7,2.9-19.5,4.3-29.1c1.1-7.7,1.9-15.6,1.6-23.4c0.1,0,0.2-0.1,0.3-0.1c3.6-1.5,7.1-0.5,10.5,0.7C253.5,284.5,251.7,325.2,249.4,365.9z M385,159.2c-1.8,11.7-8.6,22.1-16.3,30.9c-7.2,8.2-15.9,15.8-25.5,21c-7.4,4.1-15.5,6.6-22.9,10.7c-10.4,5.8-16.4,15.3-15.7,27.3c0.1,1.3,0.6,2.3,1.3,2.9c0.7,3.9,2,7.4-0.1,11.3c-2.7,5.2-3.9,9.1-2.8,14.9c1.1,5.7,4.8,10.3,6.7,15.6c2.3,6.3-4.4,12.2-8.1,16.5c-3.9,4.5-7.4,9-8.9,14.9c-1.5,5.7,0.8,11.6,3.4,16.5c2.3,4.3,4,8.1,1.9,12.7c-1.7,3.7-4.7,6.6-7.1,9.8c-5.8,7.9-6.7,16.6-2.1,25.3c2.1,4,5.5,7.1,7.8,10.9c2.8,4.6,0.5,9.5-2.6,13.1c-5.8,6.8-14.7,11.8-14.8,21.8c-0.1,8.5,10.1,12,13,18.9c1.8,4.4-2.8,7.7-5.8,9.8c-4.3,3.1-8.6,6.3-12.6,9.9c-4.6,4-8.6,8.6-13.1,12.7c-2.5,2.3-5.1,4.3-8.4,5.5c-0.8,0.3-1.7,0.4-2.5,0.3c0.4-0.5,0.7-1,0.9-1.7c2.7-8.9,2.5-18.2,2.5-27.4c0-10.1,0.8-20.2,1.4-30.3c1.2-21.5,2.5-42.9,3.7-64.4c2.4-42.9,4.4-85.8,4.5-128.7c0-1.4-1.2-3.3-2.6-3.8c-6.8-2.3-13.2-5-20.3-2.1c-0.1,0.1-0.3,0.1-0.4,0.2c-2.9-1-6.7,0.6-6.4,4.5c1.8,19-4.7,36.9-5.6,55.7c-1,21-1.9,42-3,63c-1.1,21.9-1.5,43.8-2.1,65.7c-0.3,10.9-0.7,21.9-1.2,32.8c-0.2,4.4-1.5,9.1-2,13.7c-1.1-1.4-2.1-2.8-3-4.4c-3.4-5.8-2.8-13.3-2.7-19.7c0.1-7.9,0.1-15.7,0.1-23.6c0.3-30.6,0.8-61.3,2.1-91.9c1.2-30.4,4.3-60.7,4.3-91.1c0-1.4-0.5-2.5-1.3-3.1c-1.1-8.2-4.7-14.9-10.6-21.3c-8.2-9.1-16.6-17.4-23.2-27.8c-6.6-10.3-11.5-22.3-12.4-34.5c-0.8-10.5,1.1-21,4-31c6-20.7,18.6-40.7,35.6-54.1c18.3-14.4,43.3-17.9,66-17.8c23.4,0.1,48.9,4.6,69.9,15.1c20.5,10.2,28.1,31.1,33.2,52.1C384.6,130.2,387.1,145.5,385,159.2z"/><path fill="#010101" d="M312.9,101.3c-4.3-18.2-20.8-29.5-38.9-31c-6.4-0.5-12.9,0.8-17.3,5.7c-0.4,0.5-0.7,1-0.9,1.5c-15.8,5.3-16.7,29.1-13.3,42.4c5.3,20.3,26.2,27.1,44.8,23.1C306.8,138.9,317.5,120.4,312.9,101.3z M293.2,131.2c-6.8,4-16.2,4.7-23.8,3.2c-8.4-1.7-13.7-7.3-17.2-14.8c-2.6-5.5-2.4-12.6-1.6-18.5c0.7-5.4,2.5-13,8.3-14.9c1.6-0.5,2.5-1.6,2.8-2.8c0.7-0.2,1.3-0.7,1.9-1.3c4.4-4.9,13.1-2.4,18.5-0.8c6.5,2,12.8,5.6,16.9,11.1C307.9,104.6,306.7,123.2,293.2,131.2z"/></svg>
