<?xml version="1.0" encoding="utf-8"?>
<!-- Generator: Adobe Illustrator 15.0.0, SVG Export Plug-In . SVG Version: 6.00 Build 0)  -->
<!DOCTYPE svg PUBLIC "-//W3C//DTD SVG 1.1//EN" "http://www.w3.org/Graphics/SVG/1.1/DTD/svg11.dtd">
<svg version="1.1" id="Calque_1" xmlns="http://www.w3.org/2000/svg" xmlns:xlink="http://www.w3.org/1999/xlink" x="0px" y="0px"
	 width="96px" height="96px" viewBox="0 0 96 96" enable-background="new 0 0 96 96" xml:space="preserve">
<path fill="#4D96FF" d="M40.125,57.338c-0.131-0.375-0.281-0.75-0.45-1.106c-0.356-0.788-0.75-1.575-1.181-2.325
	c-0.394-0.675-0.712-1.068-1.313-1.557c-0.788-0.637-1.837-1.594-2.944-1.519c-0.056,0.132-0.168,0.244-0.318,0.338
	c-5.513,3.469-11.063,7.219-15.638,11.906c-1.406,1.443-2.756,3.094-3.788,4.912c1.744-0.375,3.694-0.131,5.363,0.263
	c1.087,0.263,2.193,0.563,3.168,1.088c0.638,0.337,1.031,0.938,1.406,1.537c0.469,0.787,2.925,5.138,3.244,7.688
	c1.688-1.406,3.15-3.112,4.425-4.856c3.337-4.594,5.606-9.919,7.313-15.318c0.131-0.394,0.394-0.563,0.694-0.581
	c0.019-0.075,0.056-0.15,0.094-0.207C40.163,57.487,40.144,57.432,40.125,57.338z"/>
<path fill="#B5DEFF" d="M80.85,34.538c-0.262-4.481-2.438-8.981-4.894-12.656c-2.568-3.844-5.888-7.462-10.013-9.656
	c-8.287-4.406-19.012-1.763-25.649,4.481c-3.544,3.338-6.075,7.688-5.85,12.675c0.225,4.837,2.456,9.225,5.325,13.031
	c0.113,0.15,0.169,0.3,0.188,0.45c1.557,1.125,3.038,2.25,4.781,3.131c1.856,0.938,3.788,1.725,5.757,2.4
	c4.087,1.444,8.55,2.888,12.956,2.737C71.775,50.85,81.394,43.594,80.85,34.538z"/>
<path fill="#B5DEFF" d="M84.919,30.075c-1.219-4.388-3.338-8.531-6.038-12.188c-5.287-7.2-13.35-13.425-22.743-12.544
	c-8.963,0.844-18.113,6.188-23.175,13.669c-2.756,4.068-3.75,9.019-2.906,13.856c0.863,4.837,3.319,9.244,6.525,12.919
	c0.188,0.225,0.244,0.45,0.207,0.656c3.9,2.944,8.55,4.913,13.238,6.187c2.456,0.676,4.931,1.294,7.425,1.781
	c2.55,0.488,5.193,0.919,7.8,0.694c7.612-0.619,15.037-5.456,18.469-12.338C85.706,38.756,86.138,34.406,84.919,30.075z
	 M68.494,52.182c-5.27,1.594-10.65,0.524-15.788-1.088c-2.587-0.807-5.175-1.706-7.631-2.85c-1.275-0.6-2.55-1.256-3.731-2.043
	c-1.031-0.675-1.969-1.481-2.981-2.194c-0.318-0.225-0.394-0.525-0.337-0.806c-3.319-4.463-5.831-9.881-5.438-15.544
	C33,21.75,36.694,16.763,41.381,13.369c7.293-5.269,17.738-7.293,25.837-2.587c4.013,2.325,7.35,5.737,9.956,9.563
	c2.513,3.712,4.632,7.987,5.362,12.469C84,41.7,76.575,49.744,68.494,52.182z"/>
<path fill="#4D96FF" d="M25.837,78.975c0-0.019,0-0.056-0.019-0.074c-0.056-0.263-0.113-0.507-0.188-0.77
	c-0.225-0.73-0.506-1.443-0.788-2.156c-0.6-1.443-1.219-2.925-2.081-4.237c-0.375-0.581-0.45-0.731-1.031-0.975
	c-0.825-0.356-1.688-0.601-2.569-0.769c-1.613-0.319-3.919-0.731-5.419,0.188c-0.131,0.074-0.262,0.131-0.375,0.149
	c-0.712,1.894-0.994,3.919-0.637,6c0.318,1.819,1.181,3.581,2.737,4.65c1.725,1.162,3.881,1.331,5.869,0.881
	c1.613-0.375,3.113-1.05,4.481-1.95C25.688,79.612,25.688,79.237,25.837,78.975z M88.406,34.781c-0.244-2.456-0.975-4.688-2.1-6.731
	c1.368,4.388,1.668,9.019,0,13.444c-3.038,8.119-11.101,14.231-19.632,15.356c-5.568,0.731-11.362-0.824-16.688-2.287
	c-4.987-1.369-9.9-3.375-14.1-6.45c-0.619,0.169-1.388-0.244-1.182-1.031c0.038-0.15,0.094-0.3,0.15-0.431
	c-1.425-1.65-2.7-3.431-3.731-5.344c-0.881-1.65-1.631-3.375-2.175-5.156c0,0.938,0,1.875,0.056,2.813
	c0.206,3.806,0.975,7.744,3.563,10.668c0.094-0.188,0.244-0.337,0.506-0.431c1.912-0.656,3.6,0.337,5.043,1.519
	c0.994,0.807,1.538,1.481,2.156,2.588c0.413,0.73,2.231,3.73,1.725,5.1c4.819,2.138,9.844,3.094,15.094,3.45
	c5.494,0.375,11.119,0.356,16.031-2.476c4.463-2.568,8.456-6.394,11.513-10.519C87.693,44.681,88.912,39.9,88.406,34.781z"/>
<path d="M82.537,32.813c-0.73-4.462-2.831-8.756-5.362-12.469c-2.587-3.825-5.943-7.219-9.956-9.563
	c-8.1-4.706-18.544-2.681-25.837,2.587C36.694,16.763,33,21.75,32.587,27.656c-0.394,5.681,2.119,11.1,5.438,15.544
	c-0.056,0.281,0.019,0.581,0.337,0.806c1.013,0.712,1.932,1.5,2.981,2.194c1.181,0.769,2.456,1.425,3.731,2.043
	c2.456,1.163,5.044,2.043,7.631,2.85c5.138,1.594,10.5,2.662,15.788,1.088C76.575,49.744,84,41.7,82.537,32.813z M63.432,51.131
	c-4.388,0.15-8.851-1.293-12.957-2.737c-1.969-0.693-3.881-1.481-5.756-2.4c-1.744-0.881-3.225-2.006-4.781-3.131
	c-0.019-0.15-0.075-0.3-0.188-0.45c-2.869-3.806-5.1-8.194-5.325-13.031c-0.225-5.006,2.307-9.337,5.85-12.675
	c6.638-6.225,17.363-8.887,25.65-4.481c4.125,2.194,7.444,5.813,10.013,9.656c2.456,3.675,4.631,8.194,4.894,12.656
	C81.394,43.594,71.775,50.85,63.432,51.131z"/>
<path d="M88.969,29.156c-1.182-2.981-3.188-5.513-5.475-7.725c-0.057-0.056-0.113-0.094-0.169-0.131
	c-0.938-1.65-1.969-3.206-3.038-4.688C75.019,9.469,67.088,3.337,57.862,3.375c-9.019,0.038-18.225,5.044-24.15,11.644
	c-2.831,3.169-4.856,6.938-5.55,11.1c-0.413,0.094-0.769,0.413-0.788,0.957c-0.019,7.875-1.837,17.156,3.712,23.681
	c-4.313,2.775-8.494,5.775-12.281,9.263c-3.75,3.432-7.05,7.369-7.894,12.525c-0.638,3.899,0.525,8.381,4.2,10.388
	c3.957,2.156,8.682,0.618,12.169-1.726c3.244-2.193,5.794-5.381,7.837-8.681c2.457-3.938,4.294-8.194,5.756-12.601
	c5.081,2.307,10.35,3.356,15.881,3.75c5.382,0.394,10.875,0.45,15.844-1.931c4.669-2.231,8.531-5.888,11.888-9.75
	c3.281-3.769,5.55-8.138,5.851-13.2C90.544,35.513,90.188,32.194,88.969,29.156z M32.962,19.013
	c5.063-7.481,14.212-12.825,23.175-13.669c9.394-0.881,17.456,5.344,22.763,12.544c2.699,3.675,4.8,7.8,6.037,12.188
	c1.2,4.331,0.787,8.681-1.219,12.693C80.307,49.65,72.862,54.487,65.25,55.106c-2.588,0.206-5.25-0.206-7.8-0.694
	c-2.494-0.487-4.969-1.105-7.425-1.781c-4.669-1.274-9.338-3.243-13.238-6.187c0.038-0.207-0.019-0.431-0.207-0.656
	c-3.206-3.675-5.662-8.063-6.525-12.919C29.212,28.05,30.206,23.081,32.962,19.013z M25.837,79.894
	c-1.369,0.882-2.869,1.575-4.481,1.95c-1.988,0.45-4.144,0.281-5.869-0.881c-1.575-1.069-2.418-2.813-2.737-4.65
	c-0.356-2.081-0.075-4.106,0.638-6c0.131-0.019,0.262-0.057,0.375-0.15c1.5-0.918,3.806-0.506,5.418-0.188
	c0.881,0.169,1.744,0.432,2.569,0.77c0.581,0.243,0.656,0.394,1.031,0.975c0.844,1.313,1.481,2.794,2.081,4.237
	c0.3,0.713,0.563,1.425,0.788,2.156c0.075,0.244,0.15,0.507,0.188,0.769c0,0.02,0,0.057,0.019,0.075
	C25.688,79.237,25.688,79.612,25.837,79.894z M40.106,57.787c-0.3,0.02-0.582,0.188-0.694,0.582
	c-1.707,5.399-3.994,10.706-7.313,15.318c-1.256,1.744-2.738,3.45-4.425,4.856c-0.318-2.55-2.775-6.9-3.244-7.688
	c-0.356-0.601-0.769-1.2-1.406-1.538c-0.975-0.543-2.081-0.844-3.168-1.087c-1.65-0.394-3.619-0.638-5.363-0.263
	c1.031-1.8,2.381-3.469,3.788-4.912c4.575-4.669,10.125-8.438,15.638-11.906c0.15-0.094,0.262-0.207,0.318-0.338
	c1.088-0.075,2.138,0.881,2.944,1.519c0.6,0.487,0.919,0.882,1.313,1.557c0.431,0.75,0.825,1.537,1.181,2.325
	c0.169,0.355,0.319,0.73,0.45,1.105c0.038,0.094,0.056,0.15,0.075,0.226C40.144,57.638,40.125,57.713,40.106,57.787z M84.638,48.825
	c-3.057,4.144-7.05,7.95-11.513,10.519c-4.912,2.831-10.519,2.85-16.031,2.475c-5.25-0.355-10.256-1.331-15.094-3.449
	c0.506-1.351-1.313-4.351-1.725-5.101c-0.619-1.106-1.163-1.781-2.156-2.587c-1.462-1.182-3.15-2.176-5.043-1.52
	c-0.263,0.094-0.413,0.244-0.506,0.432c-2.606-2.925-3.375-6.862-3.563-10.669c-0.056-0.938-0.056-1.875-0.056-2.813
	c0.543,1.781,1.293,3.506,2.175,5.156c1.031,1.913,2.306,3.694,3.731,5.344c-0.057,0.131-0.113,0.281-0.15,0.432
	c-0.206,0.787,0.563,1.2,1.182,1.031c4.2,3.094,9.112,5.081,14.1,6.45c5.325,1.462,11.138,3.019,16.688,2.287
	c8.55-1.125,16.612-7.237,19.632-15.356c1.649-4.443,1.368-9.056,0-13.443c1.125,2.043,1.855,4.293,2.1,6.731
	C88.912,39.9,87.693,44.681,84.638,48.825z"/>
</svg>
