<?xml version="1.0" encoding="utf-8"?>
<!-- Generator: Adobe Illustrator 15.0.0, SVG Export Plug-In . SVG Version: 6.00 Build 0)  -->
<!DOCTYPE svg PUBLIC "-//W3C//DTD SVG 1.1//EN" "http://www.w3.org/Graphics/SVG/1.1/DTD/svg11.dtd">
<svg version="1.1" id="Calque_1" xmlns="http://www.w3.org/2000/svg" xmlns:xlink="http://www.w3.org/1999/xlink" x="0px" y="0px"
	 width="96px" height="96px" viewBox="0 0 96 96" enable-background="new 0 0 96 96" xml:space="preserve">
<path d="M50.914,15.008c-12.342-0.34-22.876,0.694-35.158,1.956c-1.222,0.126-2.488,0.272-3.54,0.906
	c-2.708,1.63-2.762,4.312-2.488,7.462c0.09,1.044,0.326,2.292,1.3,2.676c0.27,0.106,0.566,0.128,0.858,0.148
	C34.088,29.628,58.816,28.922,81,27.22c2.732-0.21,3.416-0.494,4.874-2.813c1.649-2.624,1.235-6.136-1.414-7.742
	c-2.651-1.604-3.442-1.744-6.542-1.75C69.546,14.9,59.282,15.24,50.914,15.008z"/>
<path d="M37.762,29.958c-8.51,0-17.286-0.23-25.944-0.804c-0.304-0.02-0.728-0.044-1.16-0.214c-1.68-0.664-1.86-2.738-1.926-3.52
	c-0.276-3.182-0.274-6.454,2.968-8.404c1.278-0.77,2.762-0.922,3.954-1.042c11.574-1.19,22.512-2.322,35.288-1.962l0,0
	C56.116,14.156,62.04,14.076,67.766,14c3.521-0.046,6.975-0.086,10.152-0.084c3.246,0.008,4.208,0.172,7.057,1.894
	c1.367,0.828,2.325,2.152,2.699,3.73c0.424,1.792,0.076,3.758-0.956,5.4c-1.659,2.636-2.636,3.046-5.644,3.278
	C69.48,29.108,54.118,29.958,37.762,29.958z M46.15,15.944c-10.682,0-20.244,0.984-30.292,2.018
	c-1.264,0.13-2.296,0.268-3.126,0.766c-2.068,1.244-2.298,3.172-2.008,6.52c0.092,1.076,0.318,1.694,0.67,1.832
	c0.134,0.052,0.366,0.066,0.55,0.078c25.188,1.666,51.412,0.414,68.978-0.934c2.448-0.188,2.834-0.33,4.102-2.35
	c0.748-1.19,1.004-2.602,0.705-3.872c-0.177-0.746-0.631-1.782-1.791-2.482c-2.478-1.498-3.065-1.598-6.025-1.606
	c-3.17-0.008-6.61,0.04-10.12,0.086c-5.748,0.076-11.69,0.154-16.905,0.01l0,0C49.279,15.964,47.704,15.944,46.15,15.944z"/>
<path d="M49.609,42.814c-11.443,0.382-22.775,0.102-34.221,0.456c-2.022,0.062-4.378,0.306-5.454,2.018
	c-1.06,1.688-0.708,4.594-0.43,6.63c0.248,1.813,1.426,2.648,3.246,2.83c2.11,0.212,4.96,0.128,7.084,0.166
	c18.452,0.34,38.166-0.458,56.24-0.016c2.478,0.06,5.146-0.418,6.984-2.08c1.506-1.362,2.166-3.463,2.244-5.492
	c0.065-1.722-0.324-3.606-1.654-4.702c-1.303-1.074-3.143-1.118-4.83-1.108C68.702,41.576,59.723,42.478,49.609,42.814z"/>
<path fill="#010101" d="M30.234,56.004c-3.508,0-6.994-0.025-10.418-0.088c-2.104-0.042-4.984,0.046-7.164-0.172
	c-3.042-0.303-3.93-2.174-4.138-3.689c-0.346-2.537-0.616-5.401,0.576-7.297c1.47-2.34,4.712-2.44,6.27-2.488
	c5.608-0.172,11.274-0.194,16.752-0.214c5.718-0.022,11.63-0.044,17.466-0.24l0,0c4.124-0.136,8.113-0.374,11.972-0.6
	c5.536-0.326,11.261-0.662,17.265-0.698c1.533,0,3.822-0.022,5.47,1.338c1.394,1.144,2.11,3.104,2.016,5.512
	c-0.1,2.586-1.014,4.786-2.571,6.196c-2.248,2.033-5.429,2.39-7.681,2.338c-9.384-0.229-19.409-0.122-29.1-0.019
	C41.436,55.943,35.808,56.004,30.234,56.004z M49.645,43.814c-5.867,0.196-11.794,0.218-17.526,0.24
	c-5.466,0.022-11.12,0.042-16.698,0.214c-1.94,0.058-3.846,0.29-4.638,1.55c-0.904,1.442-0.502,4.382-0.286,5.964
	c0.12,0.87,0.492,1.784,2.354,1.97c2.07,0.208,4.93,0.124,7.002,0.16c8.836,0.164,18.108,0.064,27.076-0.034
	c9.71-0.104,19.75-0.21,29.169,0.019c1.9,0.052,4.532-0.232,6.291-1.822c1.56-1.41,1.869-3.606,1.916-4.79
	c0.039-1.024-0.076-2.89-1.291-3.89c-1.008-0.828-2.568-0.884-4.188-0.88c-5.952,0.036-11.396,0.356-17.16,0.694
	C57.796,43.44,53.792,43.676,49.645,43.814L49.645,43.814z"/>
<path d="M47.628,67.832c-11.762,0.105-22.044-0.916-33.814-0.458c-0.772,0.03-1.59,0.224-2.138,0.771
	c-0.754,0.752-0.686,1.97-0.566,3.027l0.266,2.346c0.228,2.017,2.034,5.553,4.064,5.564c17.436,0.1,33.988,0.05,51.423-0.148
	c3.441-0.039,6.889-0.084,10.309-0.451c2.141-0.23,4.268-0.584,6.368-1.064c0.788-0.18,1.626-0.41,2.147-1.025
	c0.429-0.509,0.57-1.194,0.66-1.853c0.16-1.158,0.211-2.33,0.154-3.496c-0.1-2.067-1.798-3.729-3.865-3.79
	C70.854,66.91,59.51,67.727,47.628,67.832z"/>
<path d="M32.804,80.134c-5.736,0-11.496-0.016-17.374-0.05c-2.796-0.016-4.804-4.271-5.05-6.452l-0.266-2.346
	c-0.106-0.942-0.304-2.694,0.854-3.853c0.652-0.647,1.622-1.016,2.806-1.06c6.69-0.256,13.02-0.042,19.142,0.17
	c4.724,0.164,9.604,0.338,14.702,0.288l0,0c4.532-0.042,9.054-0.186,13.428-0.328c7.036-0.229,14.308-0.46,21.616-0.248
	c2.586,0.076,4.71,2.158,4.836,4.742c0.061,1.229,0.006,2.466-0.162,3.682c-0.109,0.811-0.294,1.66-0.886,2.36
	c-0.718,0.851-1.767,1.144-2.692,1.356c-2.128,0.485-4.31,0.85-6.482,1.084c-3.529,0.377-7.182,0.42-10.403,0.457
	C55.146,80.07,44.022,80.134,32.804,80.134z M20.236,68.254c-2.086,0-4.202,0.036-6.384,0.122c-0.664,0.024-1.186,0.194-1.472,0.478
	c-0.418,0.416-0.38,1.307-0.278,2.207l0.266,2.346c0.212,1.884,1.87,4.67,3.076,4.678c17.362,0.104,33.699,0.055,51.406-0.148
	c3.334-0.037,6.78-0.076,10.215-0.445c2.094-0.227,4.197-0.578,6.25-1.045c0.638-0.146,1.289-0.319,1.607-0.697
	c0.26-0.309,0.362-0.826,0.432-1.34c0.152-1.094,0.201-2.208,0.146-3.313c-0.076-1.546-1.348-2.794-2.896-2.84
	c-7.246-0.212-14.487,0.02-21.494,0.248c-4.383,0.141-8.918,0.288-13.473,0.328l0,0c-5.13,0.057-10.042-0.124-14.788-0.288
	C28.582,68.396,24.474,68.254,20.236,68.254z"/>
</svg>
